<?xml version="1.0" encoding="utf-8" standalone="no"?>
<!DOCTYPE svg PUBLIC "-//W3C//DTD SVG 1.1//EN"
  "http://www.w3.org/Graphics/SVG/1.1/DTD/svg11.dtd">
<svg xmlns:xlink="http://www.w3.org/1999/xlink" width="576pt" height="432pt" viewBox="0 0 576 432" xmlns="http://www.w3.org/2000/svg" version="1.1">
 <metadata>
  <rdf:RDF xmlns:dc="http://purl.org/dc/elements/1.1/" xmlns:cc="http://creativecommons.org/ns#" xmlns:rdf="http://www.w3.org/1999/02/22-rdf-syntax-ns#">
   <cc:Work>
    <dc:type rdf:resource="http://purl.org/dc/dcmitype/StillImage"/>
    <dc:date>2023-02-15T19:56:57.149954</dc:date>
    <dc:format>image/svg+xml</dc:format>
    <dc:creator>
     <cc:Agent>
      <dc:title>Matplotlib v3.7.0, https://matplotlib.org/</dc:title>
     </cc:Agent>
    </dc:creator>
   </cc:Work>
  </rdf:RDF>
 </metadata>
 <defs>
  <style type="text/css">*{stroke-linejoin: round; stroke-linecap: butt}</style>
 </defs>
 <g id="figure_1">
  <g id="patch_1">
   <path d="M 0 432 
L 576 432 
L 576 0 
L 0 0 
z
" style="fill: #ffffff"/>
  </g>
  <g id="axes_1">
   <g id="patch_2">
    <path d="M 72 378 
L 518.4 378 
L 518.4 51.84 
L 72 51.84 
L 72 378 
z
" style="fill: none; opacity: 0"/>
   </g>
   <g id="patch_3">
    <path d="M 72 359.88 
L 72 69.96 
" style="fill: none; stroke: #000000; stroke-width: 0.8; stroke-linejoin: miter; stroke-linecap: square"/>
   </g>
   <g id="LineCollection_1">
    <path d="M 135.771429 51.84 
L 135.771429 378 
" clip-path="url(#pee5160bb15)" style="fill: none; stroke-dasharray: 3.7,1.6; stroke-dashoffset: 0; stroke: #000000"/>
   </g>
   <g id="patch_4">
    <path d="M 276.068571 312.768 
L 276.068571 165.996 
L 327.085714 165.996 
L 327.085714 312.768 
z
" clip-path="url(#pee5160bb15)" style="fill: #808080; opacity: 0.5; stroke: #808080; stroke-linejoin: miter"/>
   </g>
   <g id="matplotlib.axis_1">
    <g id="xtick_1">
     <g id="line2d_1">
      <defs>
       <path id="m33a34817ab" d="M 0 0 
L 0 3.5 
" style="stroke: #000000; stroke-width: 0.8"/>
      </defs>
      <g>
       <use xlink:href="#m33a34817ab" x="72" y="378" style="stroke: #000000; stroke-width: 0.8"/>
      </g>
     </g>
     <g id="text_1">
      <!-- −100 -->
      <g transform="translate(58.266406 392.598437) scale(0.1 -0.1)">
       <defs>
        <path id="DejaVuSans-2212" d="M 678 2272 
L 4684 2272 
L 4684 1741 
L 678 1741 
L 678 2272 
z
" transform="scale(0.015625)"/>
        <path id="DejaVuSans-31" d="M 794 531 
L 1825 531 
L 1825 4091 
L 703 3866 
L 703 4441 
L 1819 4666 
L 2450 4666 
L 2450 531 
L 3481 531 
L 3481 0 
L 794 0 
L 794 531 
z
" transform="scale(0.015625)"/>
        <path id="DejaVuSans-30" d="M 2034 4250 
Q 1547 4250 1301 3770 
Q 1056 3291 1056 2328 
Q 1056 1369 1301 889 
Q 1547 409 2034 409 
Q 2525 409 2770 889 
Q 3016 1369 3016 2328 
Q 3016 3291 2770 3770 
Q 2525 4250 2034 4250 
z
M 2034 4750 
Q 2819 4750 3233 4129 
Q 3647 3509 3647 2328 
Q 3647 1150 3233 529 
Q 2819 -91 2034 -91 
Q 1250 -91 836 529 
Q 422 1150 422 2328 
Q 422 3509 836 4129 
Q 1250 4750 2034 4750 
z
" transform="scale(0.015625)"/>
       </defs>
       <use xlink:href="#DejaVuSans-2212"/>
       <use xlink:href="#DejaVuSans-31" x="83.789062"/>
       <use xlink:href="#DejaVuSans-30" x="147.412109"/>
       <use xlink:href="#DejaVuSans-30" x="211.035156"/>
      </g>
     </g>
    </g>
    <g id="xtick_2">
     <g id="line2d_2">
      <g>
       <use xlink:href="#m33a34817ab" x="135.771429" y="378" style="stroke: #000000; stroke-width: 0.8"/>
      </g>
     </g>
     <g id="text_2">
      <!-- 0 -->
      <g transform="translate(132.590179 392.598437) scale(0.1 -0.1)">
       <use xlink:href="#DejaVuSans-30"/>
      </g>
     </g>
    </g>
    <g id="xtick_3">
     <g id="line2d_3">
      <g>
       <use xlink:href="#m33a34817ab" x="199.542857" y="378" style="stroke: #000000; stroke-width: 0.8"/>
      </g>
     </g>
     <g id="text_3">
      <!-- 100 -->
      <g transform="translate(189.999107 392.598437) scale(0.1 -0.1)">
       <use xlink:href="#DejaVuSans-31"/>
       <use xlink:href="#DejaVuSans-30" x="63.623047"/>
       <use xlink:href="#DejaVuSans-30" x="127.246094"/>
      </g>
     </g>
    </g>
    <g id="xtick_4">
     <g id="line2d_4">
      <g>
       <use xlink:href="#m33a34817ab" x="263.314286" y="378" style="stroke: #000000; stroke-width: 0.8"/>
      </g>
     </g>
     <g id="text_4">
      <!-- 200 -->
      <g transform="translate(253.770536 392.598437) scale(0.1 -0.1)">
       <defs>
        <path id="DejaVuSans-32" d="M 1228 531 
L 3431 531 
L 3431 0 
L 469 0 
L 469 531 
Q 828 903 1448 1529 
Q 2069 2156 2228 2338 
Q 2531 2678 2651 2914 
Q 2772 3150 2772 3378 
Q 2772 3750 2511 3984 
Q 2250 4219 1831 4219 
Q 1534 4219 1204 4116 
Q 875 4013 500 3803 
L 500 4441 
Q 881 4594 1212 4672 
Q 1544 4750 1819 4750 
Q 2544 4750 2975 4387 
Q 3406 4025 3406 3419 
Q 3406 3131 3298 2873 
Q 3191 2616 2906 2266 
Q 2828 2175 2409 1742 
Q 1991 1309 1228 531 
z
" transform="scale(0.015625)"/>
       </defs>
       <use xlink:href="#DejaVuSans-32"/>
       <use xlink:href="#DejaVuSans-30" x="63.623047"/>
       <use xlink:href="#DejaVuSans-30" x="127.246094"/>
      </g>
     </g>
    </g>
    <g id="xtick_5">
     <g id="line2d_5">
      <g>
       <use xlink:href="#m33a34817ab" x="327.085714" y="378" style="stroke: #000000; stroke-width: 0.8"/>
      </g>
     </g>
     <g id="text_5">
      <!-- 300 -->
      <g transform="translate(317.541964 392.598437) scale(0.1 -0.1)">
       <defs>
        <path id="DejaVuSans-33" d="M 2597 2516 
Q 3050 2419 3304 2112 
Q 3559 1806 3559 1356 
Q 3559 666 3084 287 
Q 2609 -91 1734 -91 
Q 1441 -91 1130 -33 
Q 819 25 488 141 
L 488 750 
Q 750 597 1062 519 
Q 1375 441 1716 441 
Q 2309 441 2620 675 
Q 2931 909 2931 1356 
Q 2931 1769 2642 2001 
Q 2353 2234 1838 2234 
L 1294 2234 
L 1294 2753 
L 1863 2753 
Q 2328 2753 2575 2939 
Q 2822 3125 2822 3475 
Q 2822 3834 2567 4026 
Q 2313 4219 1838 4219 
Q 1578 4219 1281 4162 
Q 984 4106 628 3988 
L 628 4550 
Q 988 4650 1302 4700 
Q 1616 4750 1894 4750 
Q 2613 4750 3031 4423 
Q 3450 4097 3450 3541 
Q 3450 3153 3228 2886 
Q 3006 2619 2597 2516 
z
" transform="scale(0.015625)"/>
       </defs>
       <use xlink:href="#DejaVuSans-33"/>
       <use xlink:href="#DejaVuSans-30" x="63.623047"/>
       <use xlink:href="#DejaVuSans-30" x="127.246094"/>
      </g>
     </g>
    </g>
    <g id="xtick_6">
     <g id="line2d_6">
      <g>
       <use xlink:href="#m33a34817ab" x="390.857143" y="378" style="stroke: #000000; stroke-width: 0.8"/>
      </g>
     </g>
     <g id="text_6">
      <!-- 400 -->
      <g transform="translate(381.313393 392.598437) scale(0.1 -0.1)">
       <defs>
        <path id="DejaVuSans-34" d="M 2419 4116 
L 825 1625 
L 2419 1625 
L 2419 4116 
z
M 2253 4666 
L 3047 4666 
L 3047 1625 
L 3713 1625 
L 3713 1100 
L 3047 1100 
L 3047 0 
L 2419 0 
L 2419 1100 
L 313 1100 
L 313 1709 
L 2253 4666 
z
" transform="scale(0.015625)"/>
       </defs>
       <use xlink:href="#DejaVuSans-34"/>
       <use xlink:href="#DejaVuSans-30" x="63.623047"/>
       <use xlink:href="#DejaVuSans-30" x="127.246094"/>
      </g>
     </g>
    </g>
    <g id="xtick_7">
     <g id="line2d_7">
      <g>
       <use xlink:href="#m33a34817ab" x="454.628571" y="378" style="stroke: #000000; stroke-width: 0.8"/>
      </g>
     </g>
     <g id="text_7">
      <!-- 500 -->
      <g transform="translate(445.084821 392.598437) scale(0.1 -0.1)">
       <defs>
        <path id="DejaVuSans-35" d="M 691 4666 
L 3169 4666 
L 3169 4134 
L 1269 4134 
L 1269 2991 
Q 1406 3038 1543 3061 
Q 1681 3084 1819 3084 
Q 2600 3084 3056 2656 
Q 3513 2228 3513 1497 
Q 3513 744 3044 326 
Q 2575 -91 1722 -91 
Q 1428 -91 1123 -41 
Q 819 9 494 109 
L 494 744 
Q 775 591 1075 516 
Q 1375 441 1709 441 
Q 2250 441 2565 725 
Q 2881 1009 2881 1497 
Q 2881 1984 2565 2268 
Q 2250 2553 1709 2553 
Q 1456 2553 1204 2497 
Q 953 2441 691 2322 
L 691 4666 
z
" transform="scale(0.015625)"/>
       </defs>
       <use xlink:href="#DejaVuSans-35"/>
       <use xlink:href="#DejaVuSans-30" x="63.623047"/>
       <use xlink:href="#DejaVuSans-30" x="127.246094"/>
      </g>
     </g>
    </g>
    <g id="xtick_8">
     <g id="line2d_8">
      <g>
       <use xlink:href="#m33a34817ab" x="518.4" y="378" style="stroke: #000000; stroke-width: 0.8"/>
      </g>
     </g>
     <g id="text_8">
      <!-- 600 -->
      <g transform="translate(508.85625 392.598437) scale(0.1 -0.1)">
       <defs>
        <path id="DejaVuSans-36" d="M 2113 2584 
Q 1688 2584 1439 2293 
Q 1191 2003 1191 1497 
Q 1191 994 1439 701 
Q 1688 409 2113 409 
Q 2538 409 2786 701 
Q 3034 994 3034 1497 
Q 3034 2003 2786 2293 
Q 2538 2584 2113 2584 
z
M 3366 4563 
L 3366 3988 
Q 3128 4100 2886 4159 
Q 2644 4219 2406 4219 
Q 1781 4219 1451 3797 
Q 1122 3375 1075 2522 
Q 1259 2794 1537 2939 
Q 1816 3084 2150 3084 
Q 2853 3084 3261 2657 
Q 3669 2231 3669 1497 
Q 3669 778 3244 343 
Q 2819 -91 2113 -91 
Q 1303 -91 875 529 
Q 447 1150 447 2328 
Q 447 3434 972 4092 
Q 1497 4750 2381 4750 
Q 2619 4750 2861 4703 
Q 3103 4656 3366 4563 
z
" transform="scale(0.015625)"/>
       </defs>
       <use xlink:href="#DejaVuSans-36"/>
       <use xlink:href="#DejaVuSans-30" x="63.623047"/>
       <use xlink:href="#DejaVuSans-30" x="127.246094"/>
      </g>
     </g>
    </g>
    <g id="text_9">
     <!-- Time (ms) -->
     <g transform="translate(270.000781 406.276563) scale(0.1 -0.1)">
      <defs>
       <path id="DejaVuSans-54" d="M -19 4666 
L 3928 4666 
L 3928 4134 
L 2272 4134 
L 2272 0 
L 1638 0 
L 1638 4134 
L -19 4134 
L -19 4666 
z
" transform="scale(0.015625)"/>
       <path id="DejaVuSans-69" d="M 603 3500 
L 1178 3500 
L 1178 0 
L 603 0 
L 603 3500 
z
M 603 4863 
L 1178 4863 
L 1178 4134 
L 603 4134 
L 603 4863 
z
" transform="scale(0.015625)"/>
       <path id="DejaVuSans-6d" d="M 3328 2828 
Q 3544 3216 3844 3400 
Q 4144 3584 4550 3584 
Q 5097 3584 5394 3201 
Q 5691 2819 5691 2113 
L 5691 0 
L 5113 0 
L 5113 2094 
Q 5113 2597 4934 2840 
Q 4756 3084 4391 3084 
Q 3944 3084 3684 2787 
Q 3425 2491 3425 1978 
L 3425 0 
L 2847 0 
L 2847 2094 
Q 2847 2600 2669 2842 
Q 2491 3084 2119 3084 
Q 1678 3084 1418 2786 
Q 1159 2488 1159 1978 
L 1159 0 
L 581 0 
L 581 3500 
L 1159 3500 
L 1159 2956 
Q 1356 3278 1631 3431 
Q 1906 3584 2284 3584 
Q 2666 3584 2933 3390 
Q 3200 3197 3328 2828 
z
" transform="scale(0.015625)"/>
       <path id="DejaVuSans-65" d="M 3597 1894 
L 3597 1613 
L 953 1613 
Q 991 1019 1311 708 
Q 1631 397 2203 397 
Q 2534 397 2845 478 
Q 3156 559 3463 722 
L 3463 178 
Q 3153 47 2828 -22 
Q 2503 -91 2169 -91 
Q 1331 -91 842 396 
Q 353 884 353 1716 
Q 353 2575 817 3079 
Q 1281 3584 2069 3584 
Q 2775 3584 3186 3129 
Q 3597 2675 3597 1894 
z
M 3022 2063 
Q 3016 2534 2758 2815 
Q 2500 3097 2075 3097 
Q 1594 3097 1305 2825 
Q 1016 2553 972 2059 
L 3022 2063 
z
" transform="scale(0.015625)"/>
       <path id="DejaVuSans-20" transform="scale(0.015625)"/>
       <path id="DejaVuSans-28" d="M 1984 4856 
Q 1566 4138 1362 3434 
Q 1159 2731 1159 2009 
Q 1159 1288 1364 580 
Q 1569 -128 1984 -844 
L 1484 -844 
Q 1016 -109 783 600 
Q 550 1309 550 2009 
Q 550 2706 781 3412 
Q 1013 4119 1484 4856 
L 1984 4856 
z
" transform="scale(0.015625)"/>
       <path id="DejaVuSans-73" d="M 2834 3397 
L 2834 2853 
Q 2591 2978 2328 3040 
Q 2066 3103 1784 3103 
Q 1356 3103 1142 2972 
Q 928 2841 928 2578 
Q 928 2378 1081 2264 
Q 1234 2150 1697 2047 
L 1894 2003 
Q 2506 1872 2764 1633 
Q 3022 1394 3022 966 
Q 3022 478 2636 193 
Q 2250 -91 1575 -91 
Q 1294 -91 989 -36 
Q 684 19 347 128 
L 347 722 
Q 666 556 975 473 
Q 1284 391 1588 391 
Q 1994 391 2212 530 
Q 2431 669 2431 922 
Q 2431 1156 2273 1281 
Q 2116 1406 1581 1522 
L 1381 1569 
Q 847 1681 609 1914 
Q 372 2147 372 2553 
Q 372 3047 722 3315 
Q 1072 3584 1716 3584 
Q 2034 3584 2315 3537 
Q 2597 3491 2834 3397 
z
" transform="scale(0.015625)"/>
       <path id="DejaVuSans-29" d="M 513 4856 
L 1013 4856 
Q 1481 4119 1714 3412 
Q 1947 2706 1947 2009 
Q 1947 1309 1714 600 
Q 1481 -109 1013 -844 
L 513 -844 
Q 928 -128 1133 580 
Q 1338 1288 1338 2009 
Q 1338 2731 1133 3434 
Q 928 4138 513 4856 
z
" transform="scale(0.015625)"/>
      </defs>
      <use xlink:href="#DejaVuSans-54"/>
      <use xlink:href="#DejaVuSans-69" x="57.958984"/>
      <use xlink:href="#DejaVuSans-6d" x="85.742188"/>
      <use xlink:href="#DejaVuSans-65" x="183.154297"/>
      <use xlink:href="#DejaVuSans-20" x="244.677734"/>
      <use xlink:href="#DejaVuSans-28" x="276.464844"/>
      <use xlink:href="#DejaVuSans-6d" x="315.478516"/>
      <use xlink:href="#DejaVuSans-73" x="412.890625"/>
      <use xlink:href="#DejaVuSans-29" x="464.990234"/>
     </g>
    </g>
   </g>
   <g id="matplotlib.axis_2">
    <g id="ytick_1">
     <g id="line2d_9">
      <defs>
       <path id="ma407e5102c" d="M 0 0 
L -3.5 0 
" style="stroke: #000000; stroke-width: 0.8"/>
      </defs>
      <g>
       <use xlink:href="#ma407e5102c" x="72" y="359.88" style="stroke: #000000; stroke-width: 0.8"/>
      </g>
     </g>
     <g id="text_10">
      <!-- −8 -->
      <g transform="translate(50.257812 363.679219) scale(0.1 -0.1)">
       <defs>
        <path id="DejaVuSans-38" d="M 2034 2216 
Q 1584 2216 1326 1975 
Q 1069 1734 1069 1313 
Q 1069 891 1326 650 
Q 1584 409 2034 409 
Q 2484 409 2743 651 
Q 3003 894 3003 1313 
Q 3003 1734 2745 1975 
Q 2488 2216 2034 2216 
z
M 1403 2484 
Q 997 2584 770 2862 
Q 544 3141 544 3541 
Q 544 4100 942 4425 
Q 1341 4750 2034 4750 
Q 2731 4750 3128 4425 
Q 3525 4100 3525 3541 
Q 3525 3141 3298 2862 
Q 3072 2584 2669 2484 
Q 3125 2378 3379 2068 
Q 3634 1759 3634 1313 
Q 3634 634 3220 271 
Q 2806 -91 2034 -91 
Q 1263 -91 848 271 
Q 434 634 434 1313 
Q 434 1759 690 2068 
Q 947 2378 1403 2484 
z
M 1172 3481 
Q 1172 3119 1398 2916 
Q 1625 2713 2034 2713 
Q 2441 2713 2670 2916 
Q 2900 3119 2900 3481 
Q 2900 3844 2670 4047 
Q 2441 4250 2034 4250 
Q 1625 4250 1398 4047 
Q 1172 3844 1172 3481 
z
" transform="scale(0.015625)"/>
       </defs>
       <use xlink:href="#DejaVuSans-2212"/>
       <use xlink:href="#DejaVuSans-38" x="83.789062"/>
      </g>
     </g>
    </g>
    <g id="ytick_2">
     <g id="line2d_10">
      <g>
       <use xlink:href="#ma407e5102c" x="72" y="323.64" style="stroke: #000000; stroke-width: 0.8"/>
      </g>
     </g>
     <g id="text_11">
      <!-- −6 -->
      <g transform="translate(50.257812 327.439219) scale(0.1 -0.1)">
       <use xlink:href="#DejaVuSans-2212"/>
       <use xlink:href="#DejaVuSans-36" x="83.789062"/>
      </g>
     </g>
    </g>
    <g id="ytick_3">
     <g id="line2d_11">
      <g>
       <use xlink:href="#ma407e5102c" x="72" y="287.4" style="stroke: #000000; stroke-width: 0.8"/>
      </g>
     </g>
     <g id="text_12">
      <!-- −4 -->
      <g transform="translate(50.257812 291.199219) scale(0.1 -0.1)">
       <use xlink:href="#DejaVuSans-2212"/>
       <use xlink:href="#DejaVuSans-34" x="83.789062"/>
      </g>
     </g>
    </g>
    <g id="ytick_4">
     <g id="line2d_12">
      <g>
       <use xlink:href="#ma407e5102c" x="72" y="251.16" style="stroke: #000000; stroke-width: 0.8"/>
      </g>
     </g>
     <g id="text_13">
      <!-- −2 -->
      <g transform="translate(50.257812 254.959219) scale(0.1 -0.1)">
       <use xlink:href="#DejaVuSans-2212"/>
       <use xlink:href="#DejaVuSans-32" x="83.789062"/>
      </g>
     </g>
    </g>
    <g id="ytick_5">
     <g id="line2d_13">
      <g>
       <use xlink:href="#ma407e5102c" x="72" y="214.92" style="stroke: #000000; stroke-width: 0.8"/>
      </g>
     </g>
     <g id="text_14">
      <!-- 0 -->
      <g transform="translate(58.6375 218.719219) scale(0.1 -0.1)">
       <use xlink:href="#DejaVuSans-30"/>
      </g>
     </g>
    </g>
    <g id="ytick_6">
     <g id="line2d_14">
      <g>
       <use xlink:href="#ma407e5102c" x="72" y="178.68" style="stroke: #000000; stroke-width: 0.8"/>
      </g>
     </g>
     <g id="text_15">
      <!-- 2 -->
      <g transform="translate(58.6375 182.479219) scale(0.1 -0.1)">
       <use xlink:href="#DejaVuSans-32"/>
      </g>
     </g>
    </g>
    <g id="ytick_7">
     <g id="line2d_15">
      <g>
       <use xlink:href="#ma407e5102c" x="72" y="142.44" style="stroke: #000000; stroke-width: 0.8"/>
      </g>
     </g>
     <g id="text_16">
      <!-- 4 -->
      <g transform="translate(58.6375 146.239219) scale(0.1 -0.1)">
       <use xlink:href="#DejaVuSans-34"/>
      </g>
     </g>
    </g>
    <g id="ytick_8">
     <g id="line2d_16">
      <g>
       <use xlink:href="#ma407e5102c" x="72" y="106.2" style="stroke: #000000; stroke-width: 0.8"/>
      </g>
     </g>
     <g id="text_17">
      <!-- 6 -->
      <g transform="translate(58.6375 109.999219) scale(0.1 -0.1)">
       <use xlink:href="#DejaVuSans-36"/>
      </g>
     </g>
    </g>
    <g id="ytick_9">
     <g id="line2d_17">
      <g>
       <use xlink:href="#ma407e5102c" x="72" y="69.96" style="stroke: #000000; stroke-width: 0.8"/>
      </g>
     </g>
     <g id="text_18">
      <!-- 8 -->
      <g transform="translate(58.6375 73.759219) scale(0.1 -0.1)">
       <use xlink:href="#DejaVuSans-38"/>
      </g>
     </g>
    </g>
    <g id="text_19">
     <!-- µV -->
     <g transform="translate(44.178125 221.521562) rotate(-90) scale(0.1 -0.1)">
      <defs>
       <path id="DejaVuSans-b5" d="M 544 -1331 
L 544 3500 
L 1119 3500 
L 1119 1325 
Q 1119 872 1334 640 
Q 1550 409 1972 409 
Q 2434 409 2667 671 
Q 2900 934 2900 1459 
L 2900 3500 
L 3475 3500 
L 3475 806 
Q 3475 619 3529 530 
Q 3584 441 3700 441 
Q 3728 441 3778 458 
Q 3828 475 3916 513 
L 3916 50 
Q 3788 -22 3673 -56 
Q 3559 -91 3450 -91 
Q 3234 -91 3106 31 
Q 2978 153 2931 403 
Q 2775 156 2548 32 
Q 2322 -91 2016 -91 
Q 1697 -91 1473 31 
Q 1250 153 1119 397 
L 1119 -1331 
L 544 -1331 
z
" transform="scale(0.015625)"/>
       <path id="DejaVuSans-56" d="M 1831 0 
L 50 4666 
L 709 4666 
L 2188 738 
L 3669 4666 
L 4325 4666 
L 2547 0 
L 1831 0 
z
" transform="scale(0.015625)"/>
      </defs>
      <use xlink:href="#DejaVuSans-b5"/>
      <use xlink:href="#DejaVuSans-56" x="63.623047"/>
     </g>
    </g>
   </g>
   <g id="patch_5">
    <path d="M 72 378 
L 518.4 378 
" style="fill: none; stroke: #000000; stroke-width: 0.8; stroke-linejoin: miter; stroke-linecap: square"/>
   </g>
   <g id="patch_6">
    <path d="M 72 214.92 
L 518.4 214.92 
" style="fill: none; stroke: #000000; stroke-width: 0.8; stroke-linejoin: miter; stroke-linecap: square"/>
   </g>
   <g id="legend_1">
    <g id="patch_7">
     <path d="M 411.304688 373 
L 511.4 373 
Q 513.4 373 513.4 371 
L 513.4 313.2875 
Q 513.4 311.2875 511.4 311.2875 
L 411.304688 311.2875 
Q 409.304688 311.2875 409.304688 313.2875 
L 409.304688 371 
Q 409.304688 373 411.304688 373 
z
" style="fill: #ffffff; opacity: 0.8; stroke: #cccccc; stroke-linejoin: miter"/>
    </g>
    <g id="line2d_18">
     <path d="M 413.304688 319.385938 
L 423.304688 319.385938 
L 433.304688 319.385938 
" style="fill: none; stroke: #ff7f0e; stroke-width: 1.5; stroke-linecap: square"/>
    </g>
    <g id="text_20">
     <!-- Colors Contra -->
     <g transform="translate(441.304688 322.885938) scale(0.1 -0.1)">
      <defs>
       <path id="DejaVuSans-43" d="M 4122 4306 
L 4122 3641 
Q 3803 3938 3442 4084 
Q 3081 4231 2675 4231 
Q 1875 4231 1450 3742 
Q 1025 3253 1025 2328 
Q 1025 1406 1450 917 
Q 1875 428 2675 428 
Q 3081 428 3442 575 
Q 3803 722 4122 1019 
L 4122 359 
Q 3791 134 3420 21 
Q 3050 -91 2638 -91 
Q 1578 -91 968 557 
Q 359 1206 359 2328 
Q 359 3453 968 4101 
Q 1578 4750 2638 4750 
Q 3056 4750 3426 4639 
Q 3797 4528 4122 4306 
z
" transform="scale(0.015625)"/>
       <path id="DejaVuSans-6f" d="M 1959 3097 
Q 1497 3097 1228 2736 
Q 959 2375 959 1747 
Q 959 1119 1226 758 
Q 1494 397 1959 397 
Q 2419 397 2687 759 
Q 2956 1122 2956 1747 
Q 2956 2369 2687 2733 
Q 2419 3097 1959 3097 
z
M 1959 3584 
Q 2709 3584 3137 3096 
Q 3566 2609 3566 1747 
Q 3566 888 3137 398 
Q 2709 -91 1959 -91 
Q 1206 -91 779 398 
Q 353 888 353 1747 
Q 353 2609 779 3096 
Q 1206 3584 1959 3584 
z
" transform="scale(0.015625)"/>
       <path id="DejaVuSans-6c" d="M 603 4863 
L 1178 4863 
L 1178 0 
L 603 0 
L 603 4863 
z
" transform="scale(0.015625)"/>
       <path id="DejaVuSans-72" d="M 2631 2963 
Q 2534 3019 2420 3045 
Q 2306 3072 2169 3072 
Q 1681 3072 1420 2755 
Q 1159 2438 1159 1844 
L 1159 0 
L 581 0 
L 581 3500 
L 1159 3500 
L 1159 2956 
Q 1341 3275 1631 3429 
Q 1922 3584 2338 3584 
Q 2397 3584 2469 3576 
Q 2541 3569 2628 3553 
L 2631 2963 
z
" transform="scale(0.015625)"/>
       <path id="DejaVuSans-6e" d="M 3513 2113 
L 3513 0 
L 2938 0 
L 2938 2094 
Q 2938 2591 2744 2837 
Q 2550 3084 2163 3084 
Q 1697 3084 1428 2787 
Q 1159 2491 1159 1978 
L 1159 0 
L 581 0 
L 581 3500 
L 1159 3500 
L 1159 2956 
Q 1366 3272 1645 3428 
Q 1925 3584 2291 3584 
Q 2894 3584 3203 3211 
Q 3513 2838 3513 2113 
z
" transform="scale(0.015625)"/>
       <path id="DejaVuSans-74" d="M 1172 4494 
L 1172 3500 
L 2356 3500 
L 2356 3053 
L 1172 3053 
L 1172 1153 
Q 1172 725 1289 603 
Q 1406 481 1766 481 
L 2356 481 
L 2356 0 
L 1766 0 
Q 1100 0 847 248 
Q 594 497 594 1153 
L 594 3053 
L 172 3053 
L 172 3500 
L 594 3500 
L 594 4494 
L 1172 4494 
z
" transform="scale(0.015625)"/>
       <path id="DejaVuSans-61" d="M 2194 1759 
Q 1497 1759 1228 1600 
Q 959 1441 959 1056 
Q 959 750 1161 570 
Q 1363 391 1709 391 
Q 2188 391 2477 730 
Q 2766 1069 2766 1631 
L 2766 1759 
L 2194 1759 
z
M 3341 1997 
L 3341 0 
L 2766 0 
L 2766 531 
Q 2569 213 2275 61 
Q 1981 -91 1556 -91 
Q 1019 -91 701 211 
Q 384 513 384 1019 
Q 384 1609 779 1909 
Q 1175 2209 1959 2209 
L 2766 2209 
L 2766 2266 
Q 2766 2663 2505 2880 
Q 2244 3097 1772 3097 
Q 1472 3097 1187 3025 
Q 903 2953 641 2809 
L 641 3341 
Q 956 3463 1253 3523 
Q 1550 3584 1831 3584 
Q 2591 3584 2966 3190 
Q 3341 2797 3341 1997 
z
" transform="scale(0.015625)"/>
      </defs>
      <use xlink:href="#DejaVuSans-43"/>
      <use xlink:href="#DejaVuSans-6f" x="69.824219"/>
      <use xlink:href="#DejaVuSans-6c" x="131.005859"/>
      <use xlink:href="#DejaVuSans-6f" x="158.789062"/>
      <use xlink:href="#DejaVuSans-72" x="219.970703"/>
      <use xlink:href="#DejaVuSans-73" x="261.083984"/>
      <use xlink:href="#DejaVuSans-20" x="313.183594"/>
      <use xlink:href="#DejaVuSans-43" x="344.970703"/>
      <use xlink:href="#DejaVuSans-6f" x="414.794922"/>
      <use xlink:href="#DejaVuSans-6e" x="475.976562"/>
      <use xlink:href="#DejaVuSans-74" x="539.355469"/>
      <use xlink:href="#DejaVuSans-72" x="578.564453"/>
      <use xlink:href="#DejaVuSans-61" x="619.677734"/>
     </g>
    </g>
    <g id="line2d_19">
     <path d="M 413.304688 334.064062 
L 423.304688 334.064062 
L 433.304688 334.064062 
" style="fill: none; stroke-dasharray: 5.55,2.4; stroke-dashoffset: 0; stroke: #ff7f0e; stroke-width: 1.5"/>
    </g>
    <g id="text_21">
     <!-- Colors Ipsi -->
     <g transform="translate(441.304688 337.564062) scale(0.1 -0.1)">
      <defs>
       <path id="DejaVuSans-49" d="M 628 4666 
L 1259 4666 
L 1259 0 
L 628 0 
L 628 4666 
z
" transform="scale(0.015625)"/>
       <path id="DejaVuSans-70" d="M 1159 525 
L 1159 -1331 
L 581 -1331 
L 581 3500 
L 1159 3500 
L 1159 2969 
Q 1341 3281 1617 3432 
Q 1894 3584 2278 3584 
Q 2916 3584 3314 3078 
Q 3713 2572 3713 1747 
Q 3713 922 3314 415 
Q 2916 -91 2278 -91 
Q 1894 -91 1617 61 
Q 1341 213 1159 525 
z
M 3116 1747 
Q 3116 2381 2855 2742 
Q 2594 3103 2138 3103 
Q 1681 3103 1420 2742 
Q 1159 2381 1159 1747 
Q 1159 1113 1420 752 
Q 1681 391 2138 391 
Q 2594 391 2855 752 
Q 3116 1113 3116 1747 
z
" transform="scale(0.015625)"/>
      </defs>
      <use xlink:href="#DejaVuSans-43"/>
      <use xlink:href="#DejaVuSans-6f" x="69.824219"/>
      <use xlink:href="#DejaVuSans-6c" x="131.005859"/>
      <use xlink:href="#DejaVuSans-6f" x="158.789062"/>
      <use xlink:href="#DejaVuSans-72" x="219.970703"/>
      <use xlink:href="#DejaVuSans-73" x="261.083984"/>
      <use xlink:href="#DejaVuSans-20" x="313.183594"/>
      <use xlink:href="#DejaVuSans-49" x="344.970703"/>
      <use xlink:href="#DejaVuSans-70" x="374.462891"/>
      <use xlink:href="#DejaVuSans-73" x="437.939453"/>
      <use xlink:href="#DejaVuSans-69" x="490.039062"/>
     </g>
    </g>
    <g id="line2d_20">
     <path d="M 413.304688 348.742188 
L 423.304688 348.742188 
L 433.304688 348.742188 
" style="fill: none; stroke: #2ca02c; stroke-width: 1.5; stroke-linecap: square"/>
    </g>
    <g id="text_22">
     <!-- Forms Contra -->
     <g transform="translate(441.304688 352.242188) scale(0.1 -0.1)">
      <defs>
       <path id="DejaVuSans-46" d="M 628 4666 
L 3309 4666 
L 3309 4134 
L 1259 4134 
L 1259 2759 
L 3109 2759 
L 3109 2228 
L 1259 2228 
L 1259 0 
L 628 0 
L 628 4666 
z
" transform="scale(0.015625)"/>
      </defs>
      <use xlink:href="#DejaVuSans-46"/>
      <use xlink:href="#DejaVuSans-6f" x="53.894531"/>
      <use xlink:href="#DejaVuSans-72" x="115.076172"/>
      <use xlink:href="#DejaVuSans-6d" x="154.439453"/>
      <use xlink:href="#DejaVuSans-73" x="251.851562"/>
      <use xlink:href="#DejaVuSans-20" x="303.951172"/>
      <use xlink:href="#DejaVuSans-43" x="335.738281"/>
      <use xlink:href="#DejaVuSans-6f" x="405.5625"/>
      <use xlink:href="#DejaVuSans-6e" x="466.744141"/>
      <use xlink:href="#DejaVuSans-74" x="530.123047"/>
      <use xlink:href="#DejaVuSans-72" x="569.332031"/>
      <use xlink:href="#DejaVuSans-61" x="610.445312"/>
     </g>
    </g>
    <g id="line2d_21">
     <path d="M 413.304688 363.420313 
L 423.304688 363.420313 
L 433.304688 363.420313 
" style="fill: none; stroke-dasharray: 5.55,2.4; stroke-dashoffset: 0; stroke: #2ca02c; stroke-width: 1.5"/>
    </g>
    <g id="text_23">
     <!-- Forms Ipsi -->
     <g transform="translate(441.304688 366.920313) scale(0.1 -0.1)">
      <use xlink:href="#DejaVuSans-46"/>
      <use xlink:href="#DejaVuSans-6f" x="53.894531"/>
      <use xlink:href="#DejaVuSans-72" x="115.076172"/>
      <use xlink:href="#DejaVuSans-6d" x="154.439453"/>
      <use xlink:href="#DejaVuSans-73" x="251.851562"/>
      <use xlink:href="#DejaVuSans-20" x="303.951172"/>
      <use xlink:href="#DejaVuSans-49" x="335.738281"/>
      <use xlink:href="#DejaVuSans-70" x="365.230469"/>
      <use xlink:href="#DejaVuSans-73" x="428.707031"/>
      <use xlink:href="#DejaVuSans-69" x="480.806641"/>
     </g>
    </g>
   </g>
   <g id="line2d_22">
    <path d="M 72 210.080233 
L 75.188571 212.668156 
L 77.101714 213.974599 
L 79.014857 214.985155 
L 80.928 215.660006 
L 82.841143 216.001884 
L 84.754286 216.044176 
L 86.667429 215.834979 
L 88.580571 215.423754 
L 91.131429 214.637206 
L 94.957714 213.156525 
L 98.146286 211.959683 
L 100.059429 211.434712 
L 101.972571 211.169296 
L 103.248 211.173193 
L 104.523429 211.335321 
L 105.798857 211.655774 
L 107.712 212.406284 
L 110.262857 213.768107 
L 114.726857 216.289938 
L 116.64 217.12048 
L 118.553143 217.710414 
L 120.466286 218.062772 
L 122.379429 218.216829 
L 124.930286 218.204119 
L 128.118857 217.951618 
L 130.669714 217.555009 
L 133.220571 216.916942 
L 135.771429 216.003183 
L 142.786286 213.12578 
L 144.699429 212.714855 
L 146.612571 212.61102 
L 148.525714 212.812404 
L 150.438857 213.261416 
L 153.627429 214.296435 
L 157.453714 215.492016 
L 161.28 216.395872 
L 170.208 218.249702 
L 172.121143 218.370052 
L 174.034286 218.210247 
L 175.947429 217.736329 
L 177.860571 216.989646 
L 182.962286 214.752805 
L 184.237714 214.437031 
L 185.513143 214.310764 
L 186.788571 214.392969 
L 188.064 214.6808 
L 189.977143 215.437036 
L 195.716571 218.208437 
L 196.992 218.512971 
L 198.267429 218.606291 
L 199.542857 218.47828 
L 200.818286 218.139612 
L 202.731429 217.302723 
L 205.282286 215.805632 
L 209.746286 213.087496 
L 212.934857 211.469598 
L 216.123429 210.130187 
L 218.036571 209.543038 
L 219.312 209.339454 
L 220.587429 209.381623 
L 221.862857 209.775037 
L 222.500571 210.140647 
L 223.138286 210.639801 
L 223.776 211.288358 
L 225.051429 213.095303 
L 226.326857 215.676406 
L 227.602286 219.12563 
L 228.877714 223.505826 
L 230.153143 228.841029 
L 231.428571 235.111721 
L 233.341714 246.118479 
L 235.254857 258.680011 
L 238.443429 281.48964 
L 241.632 303.941087 
L 243.545143 316.019386 
L 245.458286 326.453112 
L 246.733714 332.332613 
L 248.009143 337.282149 
L 249.284571 341.274798 
L 250.56 344.308337 
L 251.197714 345.4704 
L 251.835429 346.40072 
L 252.473143 347.10387 
L 253.110857 347.585058 
L 253.748571 347.849992 
L 254.386286 347.904736 
L 255.024 347.755593 
L 255.661714 347.408985 
L 256.299429 346.871356 
L 256.937143 346.149087 
L 258.212571 344.175468 
L 259.488 341.535829 
L 260.763429 338.274356 
L 262.038857 334.431973 
L 263.314286 330.047509 
L 265.227429 322.539378 
L 267.140571 314.04069 
L 269.691429 301.468643 
L 273.517714 281.072188 
L 277.344 260.934561 
L 279.257143 251.755768 
L 281.170286 243.537297 
L 283.083429 236.470738 
L 284.358857 232.455054 
L 285.634286 229.008614 
L 286.909714 226.124039 
L 288.185143 223.780047 
L 289.460571 221.944501 
L 290.736 220.577726 
L 292.011429 219.635704 
L 293.286857 219.072809 
L 294.562286 218.84389 
L 295.837714 218.905552 
L 297.113143 219.216623 
L 298.388571 219.737898 
L 300.301714 220.830889 
L 302.852571 222.667831 
L 307.316571 225.998885 
L 309.229714 227.084777 
L 310.505143 227.586049 
L 311.780571 227.864941 
L 313.056 227.890327 
L 314.331429 227.638896 
L 315.606857 227.096415 
L 316.882286 226.258549 
L 318.157714 225.131205 
L 319.433143 223.730348 
L 321.346286 221.173876 
L 323.259429 218.178785 
L 326.448 212.609902 
L 330.912 204.727675 
L 333.462857 200.615909 
L 336.651429 195.96795 
L 346.217143 182.6389 
L 350.681143 175.69551 
L 355.782857 167.335296 
L 358.971429 161.750456 
L 362.16 155.721684 
L 369.174857 142.092138 
L 371.088 138.948112 
L 373.001143 136.306366 
L 374.276571 134.851799 
L 375.552 133.638433 
L 376.827429 132.645439 
L 378.740571 131.491323 
L 381.291429 130.334138 
L 385.117714 128.673891 
L 387.668571 127.287144 
L 390.857143 125.221084 
L 395.321143 122.265032 
L 397.872 120.852994 
L 399.785143 120.001376 
L 401.698286 119.337301 
L 404.249143 118.724816 
L 406.8 118.370126 
L 414.452571 117.59361 
L 416.365714 117.044803 
L 418.278857 116.204052 
L 420.192 115.057935 
L 422.742857 113.155082 
L 426.569143 110.169065 
L 428.482286 109.01125 
L 429.757714 108.478155 
L 431.033143 108.173842 
L 432.308571 108.111819 
L 433.584 108.287127 
L 434.859429 108.677054 
L 436.772571 109.578458 
L 439.961143 111.497968 
L 442.512 112.970817 
L 445.062857 114.152922 
L 451.44 116.702309 
L 453.353143 117.897746 
L 455.266286 119.484287 
L 457.179429 121.469815 
L 459.092571 123.784191 
L 466.107429 132.691487 
L 468.020571 134.583325 
L 469.933714 136.086117 
L 471.846857 137.205602 
L 473.76 137.991594 
L 475.673143 138.522081 
L 478.224 138.988559 
L 482.688 139.730444 
L 484.601143 140.221441 
L 486.514286 140.909831 
L 488.427429 141.844368 
L 490.340571 143.055639 
L 492.253714 144.549303 
L 494.166857 146.300966 
L 496.717714 148.939044 
L 503.094857 155.767205 
L 505.645714 158.088377 
L 508.196571 160.03983 
L 510.747429 161.657315 
L 513.936 163.349635 
L 518.4 165.436358 
L 518.4 165.436358 
" style="fill: none; stroke: #ff7f0e; stroke-width: 1.5; stroke-linecap: square"/>
   </g>
   <g id="line2d_23">
    <path d="M 72 210.492209 
L 77.739429 214.213136 
L 80.290286 215.567036 
L 82.203429 216.299612 
L 83.478857 216.604772 
L 84.754286 216.740816 
L 86.029714 216.69893 
L 87.305143 216.481984 
L 89.218286 215.867849 
L 91.769143 214.689504 
L 94.957714 213.179195 
L 96.870857 212.546989 
L 98.146286 212.31653 
L 99.421714 212.258875 
L 100.697143 212.374229 
L 102.610286 212.836252 
L 104.523429 213.551625 
L 109.625143 215.624395 
L 111.538286 216.115277 
L 113.451429 216.358417 
L 115.364571 216.374636 
L 117.915429 216.161549 
L 122.379429 215.73397 
L 124.930286 215.712853 
L 129.394286 215.995426 
L 131.945143 216.068636 
L 133.858286 215.957339 
L 136.409143 215.545599 
L 140.873143 214.428606 
L 143.424 213.958421 
L 145.337143 213.853051 
L 147.250286 213.997194 
L 149.163429 214.356834 
L 154.902857 215.687828 
L 156.816 215.836434 
L 158.729143 215.742513 
L 161.28 215.31116 
L 166.381714 214.2721 
L 168.932571 214.058986 
L 172.121143 214.085884 
L 175.947429 214.118018 
L 179.773714 213.866228 
L 182.324571 213.763929 
L 184.237714 213.922603 
L 185.513143 214.199335 
L 187.426286 214.903349 
L 189.339429 215.919992 
L 195.078857 219.299346 
L 196.354286 219.716182 
L 197.629714 219.892154 
L 198.905143 219.797566 
L 200.180571 219.421109 
L 201.456 218.769345 
L 202.731429 217.864252 
L 204.644571 216.107244 
L 206.557714 213.997381 
L 210.384 209.311105 
L 212.934857 206.309472 
L 214.848 204.405235 
L 216.123429 203.425617 
L 217.398857 202.775988 
L 218.036571 202.605067 
L 218.674286 202.554023 
L 219.312 202.636286 
L 219.949714 202.865434 
L 220.587429 203.254945 
L 221.225143 203.817902 
L 221.862857 204.566708 
L 222.500571 205.512789 
L 223.776 208.035846 
L 225.051429 211.448149 
L 226.326857 215.778306 
L 227.602286 221.016964 
L 228.877714 227.114464 
L 230.790857 237.667117 
L 233.341714 253.648694 
L 239.718857 295.114313 
L 241.632 306.065359 
L 243.545143 315.830038 
L 245.458286 324.294898 
L 246.733714 329.184341 
L 248.009143 333.452934 
L 249.284571 337.082866 
L 250.56 340.051724 
L 251.835429 342.332705 
L 253.110857 343.896776 
L 253.748571 344.401153 
L 254.386286 344.716261 
L 255.024 344.839556 
L 255.661714 344.769107 
L 256.299429 344.50372 
L 256.937143 344.043021 
L 257.574857 343.387538 
L 258.212571 342.538743 
L 259.488 340.271907 
L 260.763429 337.27321 
L 262.038857 333.586946 
L 263.314286 329.268213 
L 265.227429 321.74178 
L 267.140571 313.156254 
L 269.691429 300.442818 
L 272.88 283.223918 
L 278.619429 251.770499 
L 281.170286 239.215989 
L 283.083429 230.975967 
L 284.996571 223.983061 
L 286.272 220.072399 
L 287.547429 216.770886 
L 288.822857 214.060904 
L 290.098286 211.906408 
L 291.373714 210.257994 
L 292.649143 209.058999 
L 293.924571 208.251715 
L 295.2 207.782797 
L 296.475429 207.607015 
L 297.750857 207.68881 
L 299.026286 208.001503 
L 300.301714 208.524369 
L 301.577143 209.238202 
L 303.490286 210.615037 
L 306.041143 212.828205 
L 308.592 215.057004 
L 309.867429 215.996858 
L 311.142857 216.720249 
L 312.418286 217.162336 
L 313.693714 217.27545 
L 314.969143 217.035089 
L 316.244571 216.443464 
L 317.52 215.529922 
L 318.795429 214.348041 
L 320.708571 212.231926 
L 325.172571 207.064213 
L 327.085714 205.205865 
L 328.998857 203.617675 
L 334.100571 199.632324 
L 336.013714 197.73498 
L 337.926857 195.467338 
L 340.477714 191.953101 
L 346.217143 183.654468 
L 348.768 180.413593 
L 354.507429 173.429767 
L 356.420571 170.710441 
L 358.333714 167.652659 
L 360.884571 163.110104 
L 367.261714 151.316111 
L 369.812571 147.243462 
L 371.725714 144.563566 
L 374.276571 141.437498 
L 376.827429 138.695238 
L 380.016 135.59618 
L 384.48 131.575981 
L 389.581714 127.251258 
L 393.408 124.237088 
L 395.958857 122.439679 
L 398.509714 120.901086 
L 401.060571 119.652015 
L 404.249143 118.388978 
L 407.437714 117.126398 
L 409.350857 116.189733 
L 411.264 115.034044 
L 413.177143 113.640957 
L 415.728 111.480732 
L 421.467429 106.444578 
L 423.380571 105.061637 
L 425.293714 103.918885 
L 427.206857 103.016371 
L 429.12 102.331431 
L 431.033143 101.83528 
L 433.584 101.435247 
L 435.497143 101.330003 
L 437.410286 101.404822 
L 439.323429 101.670844 
L 441.236571 102.125522 
L 443.787429 102.986724 
L 446.976 104.364351 
L 449.526857 105.669028 
L 451.44 106.821092 
L 453.353143 108.219838 
L 455.266286 109.976926 
L 457.179429 112.187972 
L 459.092571 114.890549 
L 461.005714 118.030125 
L 467.382857 129.042243 
L 468.658286 130.747212 
L 469.933714 132.134959 
L 471.209143 133.184891 
L 472.484571 133.90739 
L 473.76 134.34348 
L 475.035429 134.560864 
L 480.137143 135.066564 
L 481.412571 135.529613 
L 482.688 136.232465 
L 483.963429 137.176628 
L 485.876571 138.972616 
L 491.616 144.8454 
L 492.891429 145.770389 
L 494.166857 146.462684 
L 495.442286 146.928286 
L 496.717714 147.200597 
L 498.630857 147.372928 
L 501.181714 147.544264 
L 503.094857 147.934296 
L 504.370286 148.412076 
L 505.645714 149.088929 
L 506.921143 149.961052 
L 508.834286 151.580529 
L 511.385143 154.107939 
L 517.124571 159.921647 
L 518.4 161.15119 
L 518.4 161.15119 
" style="fill: none; stroke-dasharray: 5.55,2.4; stroke-dashoffset: 0; stroke: #ff7f0e; stroke-width: 1.5"/>
   </g>
   <g id="line2d_24">
    <path d="M 72 211.770079 
L 75.188571 214.58475 
L 77.101714 215.914531 
L 78.377143 216.559886 
L 79.652571 216.980298 
L 80.928 217.164063 
L 82.203429 217.11465 
L 83.478857 216.850615 
L 85.392 216.126424 
L 87.942857 214.80019 
L 90.493714 213.465152 
L 92.406857 212.69522 
L 94.32 212.241029 
L 96.233143 212.124371 
L 98.146286 212.292078 
L 101.972571 213.006045 
L 104.523429 213.349031 
L 106.436571 213.405591 
L 108.987429 213.240849 
L 112.813714 212.930976 
L 114.726857 213.003428 
L 116.64 213.342043 
L 118.553143 213.963857 
L 120.466286 214.822637 
L 127.481143 218.285043 
L 129.394286 218.867335 
L 131.307429 219.200607 
L 133.220571 219.298957 
L 135.771429 219.138428 
L 138.96 218.649698 
L 149.801143 216.768671 
L 154.265143 215.919125 
L 159.366857 214.634152 
L 161.917714 214.08369 
L 163.830857 213.862164 
L 165.744 213.882138 
L 167.657143 214.172368 
L 169.570286 214.70649 
L 173.396571 216.139391 
L 175.947429 216.973251 
L 177.860571 217.37661 
L 179.773714 217.572375 
L 183.6 217.631736 
L 186.150857 217.792507 
L 188.064 218.123106 
L 190.614857 218.835063 
L 194.441143 220.009063 
L 196.354286 220.364996 
L 198.267429 220.452513 
L 200.180571 220.268322 
L 202.093714 219.86624 
L 204.644571 219.105071 
L 207.195429 218.109068 
L 209.108571 217.076424 
L 210.384 216.150182 
L 211.659429 214.959871 
L 212.934857 213.452094 
L 214.210286 211.597963 
L 215.485714 209.407009 
L 217.398857 205.633869 
L 219.949714 200.449479 
L 221.225143 198.275899 
L 221.862857 197.409024 
L 222.500571 196.735856 
L 223.138286 196.291657 
L 223.776 196.110735 
L 224.413714 196.225686 
L 225.051429 196.666646 
L 225.689143 197.460588 
L 226.326857 198.63068 
L 226.964571 200.195714 
L 227.602286 202.169631 
L 228.877714 207.373512 
L 230.153143 214.245626 
L 231.428571 222.700278 
L 232.704 232.56826 
L 234.617143 249.479535 
L 237.805714 280.697578 
L 240.994286 311.322342 
L 242.907429 327.635028 
L 244.820571 341.640751 
L 246.096 349.517973 
L 247.371429 356.161759 
L 248.646857 361.552037 
L 249.922286 365.692996 
L 250.56 367.301485 
L 251.197714 368.607389 
L 251.835429 369.61583 
L 252.473143 370.332722 
L 253.110857 370.764755 
L 253.748571 370.919402 
L 254.386286 370.80493 
L 255.024 370.430415 
L 255.661714 369.805765 
L 256.299429 368.94172 
L 257.574857 366.542508 
L 258.850286 363.334566 
L 260.125714 359.430154 
L 262.038857 352.528838 
L 263.952 344.730604 
L 267.140571 330.684793 
L 281.808 264.890018 
L 283.721143 257.425304 
L 285.634286 250.829289 
L 287.547429 245.266862 
L 288.822857 242.167908 
L 290.098286 239.549272 
L 291.373714 237.383751 
L 292.649143 235.631393 
L 293.924571 234.246615 
L 295.2 233.185594 
L 296.475429 232.412719 
L 297.750857 231.904999 
L 299.026286 231.653667 
L 300.301714 231.662654 
L 301.577143 231.944147 
L 302.852571 232.511821 
L 304.128 233.37278 
L 305.403429 234.519576 
L 306.678857 235.923685 
L 308.592 238.388054 
L 311.780571 242.679399 
L 313.056 244.12072 
L 314.331429 245.223473 
L 315.606857 245.883863 
L 316.244571 246.022551 
L 316.882286 246.02384 
L 317.52 245.883212 
L 318.157714 245.598494 
L 318.795429 245.169886 
L 320.070857 243.893333 
L 321.346286 242.0994 
L 322.621714 239.862918 
L 324.534857 235.888473 
L 327.723429 228.456779 
L 331.549714 219.6479 
L 335.376 211.494836 
L 341.753143 198.48333 
L 343.666286 194.988098 
L 345.579429 192.03212 
L 346.854857 190.472014 
L 348.130286 189.29865 
L 349.405714 188.536443 
L 350.681143 188.181606 
L 351.956571 188.200623 
L 353.232 188.531916 
L 354.507429 189.090696 
L 358.971429 191.346641 
L 360.246857 191.665037 
L 361.522286 191.697644 
L 362.797714 191.403881 
L 364.073143 190.768174 
L 365.348571 189.797936 
L 366.624 188.519409 
L 367.899429 186.972116 
L 369.812571 184.24949 
L 372.363429 180.110587 
L 376.189714 173.343215 
L 380.653714 165.005014 
L 388.944 149.320433 
L 390.857143 146.169312 
L 392.770286 143.407744 
L 394.683429 141.104107 
L 395.958857 139.836936 
L 397.234286 138.780456 
L 399.147429 137.556514 
L 401.060571 136.686605 
L 403.611429 135.869026 
L 407.437714 134.73675 
L 409.350857 133.977223 
L 411.264 133.014962 
L 413.814857 131.438564 
L 420.829714 126.782343 
L 422.742857 125.831534 
L 424.656 125.095019 
L 427.206857 124.4054 
L 429.757714 123.954553 
L 432.946286 123.610804 
L 435.497143 123.538119 
L 437.410286 123.679775 
L 439.323429 124.062586 
L 441.236571 124.736135 
L 443.149714 125.714093 
L 445.062857 126.96574 
L 447.613714 128.936219 
L 454.628571 134.578685 
L 457.817143 136.785888 
L 460.368 138.329837 
L 462.281143 139.302593 
L 464.194286 140.03153 
L 465.469714 140.333006 
L 466.745143 140.453748 
L 468.020571 140.373148 
L 469.296 140.082909 
L 470.571429 139.591367 
L 472.484571 138.542809 
L 477.586286 135.40509 
L 478.861714 134.96789 
L 480.137143 134.811463 
L 481.412571 134.97617 
L 482.688 135.475598 
L 483.963429 136.294494 
L 485.238857 137.389753 
L 487.152 139.400385 
L 490.978286 143.6849 
L 492.891429 145.432621 
L 494.166857 146.34379 
L 495.442286 147.045526 
L 497.355429 147.764539 
L 500.544 148.527508 
L 502.457143 149.084173 
L 503.732571 149.614752 
L 505.008 150.313023 
L 506.283429 151.191597 
L 508.196571 152.829396 
L 510.109714 154.772984 
L 513.936 159.101607 
L 518.4 164.18498 
L 518.4 164.18498 
" style="fill: none; stroke: #2ca02c; stroke-width: 1.5; stroke-linecap: square"/>
   </g>
   <g id="line2d_25">
    <path d="M 72 212.76797 
L 75.188571 215.213656 
L 77.101714 216.425399 
L 79.014857 217.309823 
L 80.290286 217.680068 
L 81.565714 217.861737 
L 82.841143 217.855722 
L 84.116571 217.674463 
L 86.029714 217.128744 
L 88.580571 216.086739 
L 91.769143 214.782292 
L 93.682286 214.237556 
L 95.595429 213.959677 
L 97.508571 213.938343 
L 100.059429 214.170711 
L 103.248 214.466879 
L 105.161143 214.447908 
L 107.074286 214.216696 
L 109.625143 213.628538 
L 114.089143 212.50183 
L 116.002286 212.285118 
L 117.915429 212.337722 
L 119.828571 212.664752 
L 121.741714 213.220198 
L 124.930286 214.43829 
L 129.394286 216.152567 
L 131.945143 216.928816 
L 134.496 217.504907 
L 137.046857 217.863148 
L 139.597714 217.982105 
L 142.148571 217.852627 
L 145.337143 217.4043 
L 152.352 216.245699 
L 156.178286 215.941414 
L 163.830857 215.658182 
L 166.381714 215.729619 
L 168.932571 216.021872 
L 171.483429 216.53849 
L 176.585143 217.680311 
L 179.136 217.944951 
L 181.686857 217.945553 
L 185.513143 217.872613 
L 187.426286 218.045985 
L 189.339429 218.451158 
L 191.890286 219.299824 
L 195.716571 220.646629 
L 197.629714 221.031264 
L 199.542857 221.097694 
L 201.456 220.848928 
L 203.369143 220.353303 
L 205.92 219.448695 
L 208.470857 218.293269 
L 210.384 217.106632 
L 211.659429 216.044564 
L 212.934857 214.681926 
L 214.210286 212.961462 
L 215.485714 210.858211 
L 217.398857 207.055276 
L 221.225143 198.826791 
L 222.500571 196.791735 
L 223.138286 196.084233 
L 223.776 195.639947 
L 224.413714 195.500252 
L 225.051429 195.704485 
L 225.689143 196.288933 
L 226.326857 197.285855 
L 226.964571 198.722573 
L 227.602286 200.620653 
L 228.24 202.995206 
L 229.515429 209.198758 
L 230.790857 217.308152 
L 232.066286 227.177361 
L 233.979429 244.687186 
L 236.530286 271.058792 
L 239.718857 303.89895 
L 241.632 321.152499 
L 242.907429 331.063004 
L 244.182857 339.542695 
L 245.458286 346.559608 
L 246.733714 352.158896 
L 248.009143 356.442825 
L 249.284571 359.547856 
L 249.922286 360.704624 
L 250.56 361.621872 
L 251.197714 362.316621 
L 251.835429 362.804406 
L 252.473143 363.098969 
L 253.110857 363.21205 
L 253.748571 363.1533 
L 254.386286 362.930275 
L 255.024 362.54854 
L 255.661714 362.011846 
L 256.937143 360.481033 
L 258.212571 358.342086 
L 259.488 355.590041 
L 260.763429 352.221733 
L 262.038857 348.245117 
L 263.314286 343.685538 
L 265.227429 335.857442 
L 267.140571 327.051823 
L 270.329143 310.984301 
L 277.981714 271.628034 
L 280.532571 259.636394 
L 283.083429 248.703909 
L 284.996571 241.364837 
L 286.909714 234.848127 
L 288.822857 229.160142 
L 290.736 224.229683 
L 292.649143 219.921799 
L 295.2 214.869102 
L 297.750857 210.333325 
L 300.301714 206.221424 
L 302.214857 203.481909 
L 304.128 201.121001 
L 306.041143 199.170034 
L 307.954286 197.567179 
L 312.418286 194.062414 
L 313.693714 192.764804 
L 314.969143 191.208572 
L 316.244571 189.361324 
L 318.157714 186.058765 
L 320.708571 180.950052 
L 323.897143 174.53748 
L 325.172571 172.318227 
L 326.448 170.428487 
L 327.723429 168.915542 
L 328.998857 167.790464 
L 330.274286 167.029239 
L 331.549714 166.578727 
L 332.825143 166.366486 
L 334.738286 166.321789 
L 341.753143 166.62648 
L 343.666286 166.988389 
L 344.941714 167.458912 
L 346.217143 168.165688 
L 347.492571 169.132439 
L 348.768 170.359035 
L 350.681143 172.628207 
L 353.232 176.192834 
L 358.333714 183.533563 
L 361.522286 187.627004 
L 364.710857 191.314639 
L 366.624 193.21996 
L 367.899429 194.243684 
L 369.174857 194.96438 
L 370.450286 195.275128 
L 371.088 195.242437 
L 371.725714 195.066929 
L 372.363429 194.736766 
L 373.001143 194.241599 
L 373.638857 193.572912 
L 374.914286 191.693411 
L 376.189714 189.082365 
L 377.465143 185.768199 
L 378.740571 181.825354 
L 380.653714 174.99597 
L 387.668571 148.469844 
L 389.581714 142.613645 
L 391.494857 137.559297 
L 393.408 133.12663 
L 396.596571 126.45793 
L 401.698286 116.290837 
L 403.611429 112.84824 
L 405.524571 109.92849 
L 406.8 108.373695 
L 408.075429 107.178359 
L 409.350857 106.354866 
L 410.626286 105.889328 
L 411.901714 105.743411 
L 413.177143 105.858659 
L 415.090286 106.364281 
L 420.192 108.04314 
L 422.105143 108.378647 
L 424.018286 108.507828 
L 427.206857 108.448254 
L 431.033143 108.382905 
L 433.584 108.531378 
L 436.134857 108.879237 
L 438.685714 109.450684 
L 441.236571 110.298783 
L 443.149714 111.157193 
L 445.062857 112.224648 
L 447.613714 113.949713 
L 451.44 116.934571 
L 455.904 120.391054 
L 464.832 127.000494 
L 471.846857 132.729478 
L 473.76 133.904223 
L 475.673143 134.763527 
L 477.586286 135.316136 
L 480.137143 135.718956 
L 483.325714 136.148809 
L 485.238857 136.624726 
L 487.152 137.385315 
L 489.065143 138.457006 
L 490.978286 139.803081 
L 493.529143 141.880426 
L 500.544 147.738321 
L 508.196571 153.831328 
L 512.022857 157.227607 
L 518.4 163.228971 
L 518.4 163.228971 
" style="fill: none; stroke-dasharray: 5.55,2.4; stroke-dashoffset: 0; stroke: #2ca02c; stroke-width: 1.5"/>
   </g>
  </g>
 </g>
 <defs>
  <clipPath id="pee5160bb15">
   <rect x="72" y="51.84" width="446.4" height="326.16"/>
  </clipPath>
 </defs>
</svg>
