<?xml version="1.0" encoding="utf-8" standalone="no"?>
<!DOCTYPE svg PUBLIC "-//W3C//DTD SVG 1.1//EN"
  "http://www.w3.org/Graphics/SVG/1.1/DTD/svg11.dtd">
<svg xmlns:xlink="http://www.w3.org/1999/xlink" width="432pt" height="288pt" viewBox="0 0 432 288" xmlns="http://www.w3.org/2000/svg" version="1.1">
 <metadata>
  <rdf:RDF xmlns:dc="http://purl.org/dc/elements/1.1/" xmlns:cc="http://creativecommons.org/ns#" xmlns:rdf="http://www.w3.org/1999/02/22-rdf-syntax-ns#">
   <cc:Work>
    <dc:type rdf:resource="http://purl.org/dc/dcmitype/StillImage"/>
    <dc:date>2025-01-22T18:06:27.233738</dc:date>
    <dc:format>image/svg+xml</dc:format>
    <dc:creator>
     <cc:Agent>
      <dc:title>Matplotlib v3.9.2, https://matplotlib.org/</dc:title>
     </cc:Agent>
    </dc:creator>
   </cc:Work>
  </rdf:RDF>
 </metadata>
 <defs>
  <style type="text/css">*{stroke-linejoin: round; stroke-linecap: butt}</style>
 </defs>
 <g id="figure_1">
  <g id="patch_1">
   <path d="M 0 288 
L 432 288 
L 432 0 
L 0 0 
z
" style="fill: #ffffff"/>
  </g>
  <g id="axes_1">
   <g id="patch_2">
    <path d="M 54 256.32 
L 388.8 256.32 
L 388.8 34.56 
L 54 34.56 
L 54 256.32 
z
" style="fill: none; opacity: 0"/>
   </g>
   <g id="patch_3">
    <path d="M 54 46.88 
L 54 244 
" style="fill: none; stroke: #000000; stroke-width: 0.8; stroke-linejoin: miter; stroke-linecap: square"/>
   </g>
   <g id="LineCollection_1">
    <path d="M 102.172662 256.32 
L 102.172662 34.56 
" clip-path="url(#p998410a34f)" style="fill: none; stroke-dasharray: 3.7,1.6; stroke-dashoffset: 0; stroke: #000000"/>
   </g>
   <g id="patch_4">
    <path d="M 208.152518 211.968 
L 246.690647 211.968 
L 246.690647 112.176 
L 208.152518 112.176 
z
" clip-path="url(#p998410a34f)" style="fill: #808080; opacity: 0.5; stroke: #808080; stroke-linejoin: miter"/>
   </g>
   <g id="matplotlib.axis_1">
    <g id="xtick_1">
     <g id="line2d_1">
      <defs>
       <path id="m2067eaa154" d="M 0 0 
L 0 3.5 
" style="stroke: #000000; stroke-width: 0.8"/>
      </defs>
      <g>
       <use xlink:href="#m2067eaa154" x="54" y="256.32" style="stroke: #000000; stroke-width: 0.8"/>
      </g>
     </g>
     <g id="text_1">
      <!-- −100 -->
      <g transform="translate(37.519687 272.438125) scale(0.12 -0.12)">
       <defs>
        <path id="DejaVuSans-2212" d="M 678 2272 
L 4684 2272 
L 4684 1741 
L 678 1741 
L 678 2272 
z
" transform="scale(0.015625)"/>
        <path id="DejaVuSans-31" d="M 794 531 
L 1825 531 
L 1825 4091 
L 703 3866 
L 703 4441 
L 1819 4666 
L 2450 4666 
L 2450 531 
L 3481 531 
L 3481 0 
L 794 0 
L 794 531 
z
" transform="scale(0.015625)"/>
        <path id="DejaVuSans-30" d="M 2034 4250 
Q 1547 4250 1301 3770 
Q 1056 3291 1056 2328 
Q 1056 1369 1301 889 
Q 1547 409 2034 409 
Q 2525 409 2770 889 
Q 3016 1369 3016 2328 
Q 3016 3291 2770 3770 
Q 2525 4250 2034 4250 
z
M 2034 4750 
Q 2819 4750 3233 4129 
Q 3647 3509 3647 2328 
Q 3647 1150 3233 529 
Q 2819 -91 2034 -91 
Q 1250 -91 836 529 
Q 422 1150 422 2328 
Q 422 3509 836 4129 
Q 1250 4750 2034 4750 
z
" transform="scale(0.015625)"/>
       </defs>
       <use xlink:href="#DejaVuSans-2212"/>
       <use xlink:href="#DejaVuSans-31" x="83.789062"/>
       <use xlink:href="#DejaVuSans-30" x="147.412109"/>
       <use xlink:href="#DejaVuSans-30" x="211.035156"/>
      </g>
     </g>
    </g>
    <g id="xtick_2">
     <g id="line2d_2">
      <g>
       <use xlink:href="#m2067eaa154" x="102.172662" y="256.32" style="stroke: #000000; stroke-width: 0.8"/>
      </g>
     </g>
     <g id="text_2">
      <!-- 0 -->
      <g transform="translate(98.355162 272.438125) scale(0.12 -0.12)">
       <use xlink:href="#DejaVuSans-30"/>
      </g>
     </g>
    </g>
    <g id="xtick_3">
     <g id="line2d_3">
      <g>
       <use xlink:href="#m2067eaa154" x="150.345324" y="256.32" style="stroke: #000000; stroke-width: 0.8"/>
      </g>
     </g>
     <g id="text_3">
      <!-- 100 -->
      <g transform="translate(138.892824 272.438125) scale(0.12 -0.12)">
       <use xlink:href="#DejaVuSans-31"/>
       <use xlink:href="#DejaVuSans-30" x="63.623047"/>
       <use xlink:href="#DejaVuSans-30" x="127.246094"/>
      </g>
     </g>
    </g>
    <g id="xtick_4">
     <g id="line2d_4">
      <g>
       <use xlink:href="#m2067eaa154" x="198.517986" y="256.32" style="stroke: #000000; stroke-width: 0.8"/>
      </g>
     </g>
     <g id="text_4">
      <!-- 200 -->
      <g transform="translate(187.065486 272.438125) scale(0.12 -0.12)">
       <defs>
        <path id="DejaVuSans-32" d="M 1228 531 
L 3431 531 
L 3431 0 
L 469 0 
L 469 531 
Q 828 903 1448 1529 
Q 2069 2156 2228 2338 
Q 2531 2678 2651 2914 
Q 2772 3150 2772 3378 
Q 2772 3750 2511 3984 
Q 2250 4219 1831 4219 
Q 1534 4219 1204 4116 
Q 875 4013 500 3803 
L 500 4441 
Q 881 4594 1212 4672 
Q 1544 4750 1819 4750 
Q 2544 4750 2975 4387 
Q 3406 4025 3406 3419 
Q 3406 3131 3298 2873 
Q 3191 2616 2906 2266 
Q 2828 2175 2409 1742 
Q 1991 1309 1228 531 
z
" transform="scale(0.015625)"/>
       </defs>
       <use xlink:href="#DejaVuSans-32"/>
       <use xlink:href="#DejaVuSans-30" x="63.623047"/>
       <use xlink:href="#DejaVuSans-30" x="127.246094"/>
      </g>
     </g>
    </g>
    <g id="xtick_5">
     <g id="line2d_5">
      <g>
       <use xlink:href="#m2067eaa154" x="246.690647" y="256.32" style="stroke: #000000; stroke-width: 0.8"/>
      </g>
     </g>
     <g id="text_5">
      <!-- 300 -->
      <g transform="translate(235.238147 272.438125) scale(0.12 -0.12)">
       <defs>
        <path id="DejaVuSans-33" d="M 2597 2516 
Q 3050 2419 3304 2112 
Q 3559 1806 3559 1356 
Q 3559 666 3084 287 
Q 2609 -91 1734 -91 
Q 1441 -91 1130 -33 
Q 819 25 488 141 
L 488 750 
Q 750 597 1062 519 
Q 1375 441 1716 441 
Q 2309 441 2620 675 
Q 2931 909 2931 1356 
Q 2931 1769 2642 2001 
Q 2353 2234 1838 2234 
L 1294 2234 
L 1294 2753 
L 1863 2753 
Q 2328 2753 2575 2939 
Q 2822 3125 2822 3475 
Q 2822 3834 2567 4026 
Q 2313 4219 1838 4219 
Q 1578 4219 1281 4162 
Q 984 4106 628 3988 
L 628 4550 
Q 988 4650 1302 4700 
Q 1616 4750 1894 4750 
Q 2613 4750 3031 4423 
Q 3450 4097 3450 3541 
Q 3450 3153 3228 2886 
Q 3006 2619 2597 2516 
z
" transform="scale(0.015625)"/>
       </defs>
       <use xlink:href="#DejaVuSans-33"/>
       <use xlink:href="#DejaVuSans-30" x="63.623047"/>
       <use xlink:href="#DejaVuSans-30" x="127.246094"/>
      </g>
     </g>
    </g>
    <g id="xtick_6">
     <g id="line2d_6">
      <g>
       <use xlink:href="#m2067eaa154" x="294.863309" y="256.32" style="stroke: #000000; stroke-width: 0.8"/>
      </g>
     </g>
     <g id="text_6">
      <!-- 400 -->
      <g transform="translate(283.410809 272.438125) scale(0.12 -0.12)">
       <defs>
        <path id="DejaVuSans-34" d="M 2419 4116 
L 825 1625 
L 2419 1625 
L 2419 4116 
z
M 2253 4666 
L 3047 4666 
L 3047 1625 
L 3713 1625 
L 3713 1100 
L 3047 1100 
L 3047 0 
L 2419 0 
L 2419 1100 
L 313 1100 
L 313 1709 
L 2253 4666 
z
" transform="scale(0.015625)"/>
       </defs>
       <use xlink:href="#DejaVuSans-34"/>
       <use xlink:href="#DejaVuSans-30" x="63.623047"/>
       <use xlink:href="#DejaVuSans-30" x="127.246094"/>
      </g>
     </g>
    </g>
    <g id="xtick_7">
     <g id="line2d_7">
      <g>
       <use xlink:href="#m2067eaa154" x="343.035971" y="256.32" style="stroke: #000000; stroke-width: 0.8"/>
      </g>
     </g>
     <g id="text_7">
      <!-- 500 -->
      <g transform="translate(331.583471 272.438125) scale(0.12 -0.12)">
       <defs>
        <path id="DejaVuSans-35" d="M 691 4666 
L 3169 4666 
L 3169 4134 
L 1269 4134 
L 1269 2991 
Q 1406 3038 1543 3061 
Q 1681 3084 1819 3084 
Q 2600 3084 3056 2656 
Q 3513 2228 3513 1497 
Q 3513 744 3044 326 
Q 2575 -91 1722 -91 
Q 1428 -91 1123 -41 
Q 819 9 494 109 
L 494 744 
Q 775 591 1075 516 
Q 1375 441 1709 441 
Q 2250 441 2565 725 
Q 2881 1009 2881 1497 
Q 2881 1984 2565 2268 
Q 2250 2553 1709 2553 
Q 1456 2553 1204 2497 
Q 953 2441 691 2322 
L 691 4666 
z
" transform="scale(0.015625)"/>
       </defs>
       <use xlink:href="#DejaVuSans-35"/>
       <use xlink:href="#DejaVuSans-30" x="63.623047"/>
       <use xlink:href="#DejaVuSans-30" x="127.246094"/>
      </g>
     </g>
    </g>
    <g id="text_8">
     <!-- Time (ms) -->
     <g transform="translate(191.160938 288.051875) scale(0.12 -0.12)">
      <defs>
       <path id="DejaVuSans-54" d="M -19 4666 
L 3928 4666 
L 3928 4134 
L 2272 4134 
L 2272 0 
L 1638 0 
L 1638 4134 
L -19 4134 
L -19 4666 
z
" transform="scale(0.015625)"/>
       <path id="DejaVuSans-69" d="M 603 3500 
L 1178 3500 
L 1178 0 
L 603 0 
L 603 3500 
z
M 603 4863 
L 1178 4863 
L 1178 4134 
L 603 4134 
L 603 4863 
z
" transform="scale(0.015625)"/>
       <path id="DejaVuSans-6d" d="M 3328 2828 
Q 3544 3216 3844 3400 
Q 4144 3584 4550 3584 
Q 5097 3584 5394 3201 
Q 5691 2819 5691 2113 
L 5691 0 
L 5113 0 
L 5113 2094 
Q 5113 2597 4934 2840 
Q 4756 3084 4391 3084 
Q 3944 3084 3684 2787 
Q 3425 2491 3425 1978 
L 3425 0 
L 2847 0 
L 2847 2094 
Q 2847 2600 2669 2842 
Q 2491 3084 2119 3084 
Q 1678 3084 1418 2786 
Q 1159 2488 1159 1978 
L 1159 0 
L 581 0 
L 581 3500 
L 1159 3500 
L 1159 2956 
Q 1356 3278 1631 3431 
Q 1906 3584 2284 3584 
Q 2666 3584 2933 3390 
Q 3200 3197 3328 2828 
z
" transform="scale(0.015625)"/>
       <path id="DejaVuSans-65" d="M 3597 1894 
L 3597 1613 
L 953 1613 
Q 991 1019 1311 708 
Q 1631 397 2203 397 
Q 2534 397 2845 478 
Q 3156 559 3463 722 
L 3463 178 
Q 3153 47 2828 -22 
Q 2503 -91 2169 -91 
Q 1331 -91 842 396 
Q 353 884 353 1716 
Q 353 2575 817 3079 
Q 1281 3584 2069 3584 
Q 2775 3584 3186 3129 
Q 3597 2675 3597 1894 
z
M 3022 2063 
Q 3016 2534 2758 2815 
Q 2500 3097 2075 3097 
Q 1594 3097 1305 2825 
Q 1016 2553 972 2059 
L 3022 2063 
z
" transform="scale(0.015625)"/>
       <path id="DejaVuSans-20" transform="scale(0.015625)"/>
       <path id="DejaVuSans-28" d="M 1984 4856 
Q 1566 4138 1362 3434 
Q 1159 2731 1159 2009 
Q 1159 1288 1364 580 
Q 1569 -128 1984 -844 
L 1484 -844 
Q 1016 -109 783 600 
Q 550 1309 550 2009 
Q 550 2706 781 3412 
Q 1013 4119 1484 4856 
L 1984 4856 
z
" transform="scale(0.015625)"/>
       <path id="DejaVuSans-73" d="M 2834 3397 
L 2834 2853 
Q 2591 2978 2328 3040 
Q 2066 3103 1784 3103 
Q 1356 3103 1142 2972 
Q 928 2841 928 2578 
Q 928 2378 1081 2264 
Q 1234 2150 1697 2047 
L 1894 2003 
Q 2506 1872 2764 1633 
Q 3022 1394 3022 966 
Q 3022 478 2636 193 
Q 2250 -91 1575 -91 
Q 1294 -91 989 -36 
Q 684 19 347 128 
L 347 722 
Q 666 556 975 473 
Q 1284 391 1588 391 
Q 1994 391 2212 530 
Q 2431 669 2431 922 
Q 2431 1156 2273 1281 
Q 2116 1406 1581 1522 
L 1381 1569 
Q 847 1681 609 1914 
Q 372 2147 372 2553 
Q 372 3047 722 3315 
Q 1072 3584 1716 3584 
Q 2034 3584 2315 3537 
Q 2597 3491 2834 3397 
z
" transform="scale(0.015625)"/>
       <path id="DejaVuSans-29" d="M 513 4856 
L 1013 4856 
Q 1481 4119 1714 3412 
Q 1947 2706 1947 2009 
Q 1947 1309 1714 600 
Q 1481 -109 1013 -844 
L 513 -844 
Q 928 -128 1133 580 
Q 1338 1288 1338 2009 
Q 1338 2731 1133 3434 
Q 928 4138 513 4856 
z
" transform="scale(0.015625)"/>
      </defs>
      <use xlink:href="#DejaVuSans-54"/>
      <use xlink:href="#DejaVuSans-69" x="57.958984"/>
      <use xlink:href="#DejaVuSans-6d" x="85.742188"/>
      <use xlink:href="#DejaVuSans-65" x="183.154297"/>
      <use xlink:href="#DejaVuSans-20" x="244.677734"/>
      <use xlink:href="#DejaVuSans-28" x="276.464844"/>
      <use xlink:href="#DejaVuSans-6d" x="315.478516"/>
      <use xlink:href="#DejaVuSans-73" x="412.890625"/>
      <use xlink:href="#DejaVuSans-29" x="464.990234"/>
     </g>
    </g>
   </g>
   <g id="matplotlib.axis_2">
    <g id="ytick_1">
     <g id="line2d_8">
      <defs>
       <path id="m21f642f176" d="M 0 0 
L -3.5 0 
" style="stroke: #000000; stroke-width: 0.8"/>
      </defs>
      <g>
       <use xlink:href="#m21f642f176" x="54" y="46.88" style="stroke: #000000; stroke-width: 0.8"/>
      </g>
     </g>
     <g id="text_9">
      <!-- −8 -->
      <g transform="translate(29.309375 51.439063) scale(0.12 -0.12)">
       <defs>
        <path id="DejaVuSans-38" d="M 2034 2216 
Q 1584 2216 1326 1975 
Q 1069 1734 1069 1313 
Q 1069 891 1326 650 
Q 1584 409 2034 409 
Q 2484 409 2743 651 
Q 3003 894 3003 1313 
Q 3003 1734 2745 1975 
Q 2488 2216 2034 2216 
z
M 1403 2484 
Q 997 2584 770 2862 
Q 544 3141 544 3541 
Q 544 4100 942 4425 
Q 1341 4750 2034 4750 
Q 2731 4750 3128 4425 
Q 3525 4100 3525 3541 
Q 3525 3141 3298 2862 
Q 3072 2584 2669 2484 
Q 3125 2378 3379 2068 
Q 3634 1759 3634 1313 
Q 3634 634 3220 271 
Q 2806 -91 2034 -91 
Q 1263 -91 848 271 
Q 434 634 434 1313 
Q 434 1759 690 2068 
Q 947 2378 1403 2484 
z
M 1172 3481 
Q 1172 3119 1398 2916 
Q 1625 2713 2034 2713 
Q 2441 2713 2670 2916 
Q 2900 3119 2900 3481 
Q 2900 3844 2670 4047 
Q 2441 4250 2034 4250 
Q 1625 4250 1398 4047 
Q 1172 3844 1172 3481 
z
" transform="scale(0.015625)"/>
       </defs>
       <use xlink:href="#DejaVuSans-2212"/>
       <use xlink:href="#DejaVuSans-38" x="83.789062"/>
      </g>
     </g>
    </g>
    <g id="ytick_2">
     <g id="line2d_9">
      <g>
       <use xlink:href="#m21f642f176" x="54" y="71.52" style="stroke: #000000; stroke-width: 0.8"/>
      </g>
     </g>
     <g id="text_10">
      <!-- −6 -->
      <g transform="translate(29.309375 76.079063) scale(0.12 -0.12)">
       <defs>
        <path id="DejaVuSans-36" d="M 2113 2584 
Q 1688 2584 1439 2293 
Q 1191 2003 1191 1497 
Q 1191 994 1439 701 
Q 1688 409 2113 409 
Q 2538 409 2786 701 
Q 3034 994 3034 1497 
Q 3034 2003 2786 2293 
Q 2538 2584 2113 2584 
z
M 3366 4563 
L 3366 3988 
Q 3128 4100 2886 4159 
Q 2644 4219 2406 4219 
Q 1781 4219 1451 3797 
Q 1122 3375 1075 2522 
Q 1259 2794 1537 2939 
Q 1816 3084 2150 3084 
Q 2853 3084 3261 2657 
Q 3669 2231 3669 1497 
Q 3669 778 3244 343 
Q 2819 -91 2113 -91 
Q 1303 -91 875 529 
Q 447 1150 447 2328 
Q 447 3434 972 4092 
Q 1497 4750 2381 4750 
Q 2619 4750 2861 4703 
Q 3103 4656 3366 4563 
z
" transform="scale(0.015625)"/>
       </defs>
       <use xlink:href="#DejaVuSans-2212"/>
       <use xlink:href="#DejaVuSans-36" x="83.789062"/>
      </g>
     </g>
    </g>
    <g id="ytick_3">
     <g id="line2d_10">
      <g>
       <use xlink:href="#m21f642f176" x="54" y="96.16" style="stroke: #000000; stroke-width: 0.8"/>
      </g>
     </g>
     <g id="text_11">
      <!-- −4 -->
      <g transform="translate(29.309375 100.719063) scale(0.12 -0.12)">
       <use xlink:href="#DejaVuSans-2212"/>
       <use xlink:href="#DejaVuSans-34" x="83.789062"/>
      </g>
     </g>
    </g>
    <g id="ytick_4">
     <g id="line2d_11">
      <g>
       <use xlink:href="#m21f642f176" x="54" y="120.8" style="stroke: #000000; stroke-width: 0.8"/>
      </g>
     </g>
     <g id="text_12">
      <!-- −2 -->
      <g transform="translate(29.309375 125.359063) scale(0.12 -0.12)">
       <use xlink:href="#DejaVuSans-2212"/>
       <use xlink:href="#DejaVuSans-32" x="83.789062"/>
      </g>
     </g>
    </g>
    <g id="ytick_5">
     <g id="line2d_12">
      <g>
       <use xlink:href="#m21f642f176" x="54" y="145.44" style="stroke: #000000; stroke-width: 0.8"/>
      </g>
     </g>
     <g id="text_13">
      <!-- 0 -->
      <g transform="translate(39.365 149.999063) scale(0.12 -0.12)">
       <use xlink:href="#DejaVuSans-30"/>
      </g>
     </g>
    </g>
    <g id="ytick_6">
     <g id="line2d_13">
      <g>
       <use xlink:href="#m21f642f176" x="54" y="170.08" style="stroke: #000000; stroke-width: 0.8"/>
      </g>
     </g>
     <g id="text_14">
      <!-- 2 -->
      <g transform="translate(39.365 174.639062) scale(0.12 -0.12)">
       <use xlink:href="#DejaVuSans-32"/>
      </g>
     </g>
    </g>
    <g id="ytick_7">
     <g id="line2d_14">
      <g>
       <use xlink:href="#m21f642f176" x="54" y="194.72" style="stroke: #000000; stroke-width: 0.8"/>
      </g>
     </g>
     <g id="text_15">
      <!-- 4 -->
      <g transform="translate(39.365 199.279063) scale(0.12 -0.12)">
       <use xlink:href="#DejaVuSans-34"/>
      </g>
     </g>
    </g>
    <g id="ytick_8">
     <g id="line2d_15">
      <g>
       <use xlink:href="#m21f642f176" x="54" y="219.36" style="stroke: #000000; stroke-width: 0.8"/>
      </g>
     </g>
     <g id="text_16">
      <!-- 6 -->
      <g transform="translate(39.365 223.919062) scale(0.12 -0.12)">
       <use xlink:href="#DejaVuSans-36"/>
      </g>
     </g>
    </g>
    <g id="ytick_9">
     <g id="line2d_16">
      <g>
       <use xlink:href="#m21f642f176" x="54" y="244" style="stroke: #000000; stroke-width: 0.8"/>
      </g>
     </g>
     <g id="text_17">
      <!-- 8 -->
      <g transform="translate(39.365 248.559062) scale(0.12 -0.12)">
       <use xlink:href="#DejaVuSans-38"/>
      </g>
     </g>
    </g>
    <g id="text_18">
     <!-- µV -->
     <g transform="translate(22.81375 153.361875) rotate(-90) scale(0.12 -0.12)">
      <defs>
       <path id="DejaVuSans-b5" d="M 544 -1331 
L 544 3500 
L 1119 3500 
L 1119 1325 
Q 1119 872 1334 640 
Q 1550 409 1972 409 
Q 2434 409 2667 671 
Q 2900 934 2900 1459 
L 2900 3500 
L 3475 3500 
L 3475 806 
Q 3475 619 3529 530 
Q 3584 441 3700 441 
Q 3728 441 3778 458 
Q 3828 475 3916 513 
L 3916 50 
Q 3788 -22 3673 -56 
Q 3559 -91 3450 -91 
Q 3234 -91 3106 31 
Q 2978 153 2931 403 
Q 2775 156 2548 32 
Q 2322 -91 2016 -91 
Q 1697 -91 1473 31 
Q 1250 153 1119 397 
L 1119 -1331 
L 544 -1331 
z
" transform="scale(0.015625)"/>
       <path id="DejaVuSans-56" d="M 1831 0 
L 50 4666 
L 709 4666 
L 2188 738 
L 3669 4666 
L 4325 4666 
L 2547 0 
L 1831 0 
z
" transform="scale(0.015625)"/>
      </defs>
      <use xlink:href="#DejaVuSans-b5"/>
      <use xlink:href="#DejaVuSans-56" x="63.623047"/>
     </g>
    </g>
   </g>
   <g id="patch_5">
    <path d="M 54 256.32 
L 343.035971 256.32 
" style="fill: none; stroke: #000000; stroke-width: 0.8; stroke-linejoin: miter; stroke-linecap: square"/>
   </g>
   <g id="patch_6">
    <path d="M 54 145.44 
L 388.8 145.44 
" style="fill: none; stroke: #000000; stroke-width: 0.8; stroke-linejoin: miter; stroke-linecap: square"/>
   </g>
   <g id="text_19">
    <!-- OL/OR -->
    <g transform="translate(64.217187 35.505637) scale(0.1 -0.1)">
     <defs>
      <path id="DejaVuSans-4f" d="M 2522 4238 
Q 1834 4238 1429 3725 
Q 1025 3213 1025 2328 
Q 1025 1447 1429 934 
Q 1834 422 2522 422 
Q 3209 422 3611 934 
Q 4013 1447 4013 2328 
Q 4013 3213 3611 3725 
Q 3209 4238 2522 4238 
z
M 2522 4750 
Q 3503 4750 4090 4092 
Q 4678 3434 4678 2328 
Q 4678 1225 4090 567 
Q 3503 -91 2522 -91 
Q 1538 -91 948 565 
Q 359 1222 359 2328 
Q 359 3434 948 4092 
Q 1538 4750 2522 4750 
z
" transform="scale(0.015625)"/>
      <path id="DejaVuSans-4c" d="M 628 4666 
L 1259 4666 
L 1259 531 
L 3531 531 
L 3531 0 
L 628 0 
L 628 4666 
z
" transform="scale(0.015625)"/>
      <path id="DejaVuSans-2f" d="M 1625 4666 
L 2156 4666 
L 531 -594 
L 0 -594 
L 1625 4666 
z
" transform="scale(0.015625)"/>
      <path id="DejaVuSans-52" d="M 2841 2188 
Q 3044 2119 3236 1894 
Q 3428 1669 3622 1275 
L 4263 0 
L 3584 0 
L 2988 1197 
Q 2756 1666 2539 1819 
Q 2322 1972 1947 1972 
L 1259 1972 
L 1259 0 
L 628 0 
L 628 4666 
L 2053 4666 
Q 2853 4666 3247 4331 
Q 3641 3997 3641 3322 
Q 3641 2881 3436 2590 
Q 3231 2300 2841 2188 
z
M 1259 4147 
L 1259 2491 
L 2053 2491 
Q 2509 2491 2742 2702 
Q 2975 2913 2975 3322 
Q 2975 3731 2742 3939 
Q 2509 4147 2053 4147 
L 1259 4147 
z
" transform="scale(0.015625)"/>
     </defs>
     <use xlink:href="#DejaVuSans-4f"/>
     <use xlink:href="#DejaVuSans-4c" x="78.710938"/>
     <use xlink:href="#DejaVuSans-2f" x="134.423828"/>
     <use xlink:href="#DejaVuSans-4f" x="168.115234"/>
     <use xlink:href="#DejaVuSans-52" x="246.826172"/>
    </g>
   </g>
   <g id="text_20">
    <!-- Contra and Ipsi Waves -->
    <g transform="translate(140.837625 28.56) scale(0.144 -0.144)">
     <defs>
      <path id="DejaVuSans-43" d="M 4122 4306 
L 4122 3641 
Q 3803 3938 3442 4084 
Q 3081 4231 2675 4231 
Q 1875 4231 1450 3742 
Q 1025 3253 1025 2328 
Q 1025 1406 1450 917 
Q 1875 428 2675 428 
Q 3081 428 3442 575 
Q 3803 722 4122 1019 
L 4122 359 
Q 3791 134 3420 21 
Q 3050 -91 2638 -91 
Q 1578 -91 968 557 
Q 359 1206 359 2328 
Q 359 3453 968 4101 
Q 1578 4750 2638 4750 
Q 3056 4750 3426 4639 
Q 3797 4528 4122 4306 
z
" transform="scale(0.015625)"/>
      <path id="DejaVuSans-6f" d="M 1959 3097 
Q 1497 3097 1228 2736 
Q 959 2375 959 1747 
Q 959 1119 1226 758 
Q 1494 397 1959 397 
Q 2419 397 2687 759 
Q 2956 1122 2956 1747 
Q 2956 2369 2687 2733 
Q 2419 3097 1959 3097 
z
M 1959 3584 
Q 2709 3584 3137 3096 
Q 3566 2609 3566 1747 
Q 3566 888 3137 398 
Q 2709 -91 1959 -91 
Q 1206 -91 779 398 
Q 353 888 353 1747 
Q 353 2609 779 3096 
Q 1206 3584 1959 3584 
z
" transform="scale(0.015625)"/>
      <path id="DejaVuSans-6e" d="M 3513 2113 
L 3513 0 
L 2938 0 
L 2938 2094 
Q 2938 2591 2744 2837 
Q 2550 3084 2163 3084 
Q 1697 3084 1428 2787 
Q 1159 2491 1159 1978 
L 1159 0 
L 581 0 
L 581 3500 
L 1159 3500 
L 1159 2956 
Q 1366 3272 1645 3428 
Q 1925 3584 2291 3584 
Q 2894 3584 3203 3211 
Q 3513 2838 3513 2113 
z
" transform="scale(0.015625)"/>
      <path id="DejaVuSans-74" d="M 1172 4494 
L 1172 3500 
L 2356 3500 
L 2356 3053 
L 1172 3053 
L 1172 1153 
Q 1172 725 1289 603 
Q 1406 481 1766 481 
L 2356 481 
L 2356 0 
L 1766 0 
Q 1100 0 847 248 
Q 594 497 594 1153 
L 594 3053 
L 172 3053 
L 172 3500 
L 594 3500 
L 594 4494 
L 1172 4494 
z
" transform="scale(0.015625)"/>
      <path id="DejaVuSans-72" d="M 2631 2963 
Q 2534 3019 2420 3045 
Q 2306 3072 2169 3072 
Q 1681 3072 1420 2755 
Q 1159 2438 1159 1844 
L 1159 0 
L 581 0 
L 581 3500 
L 1159 3500 
L 1159 2956 
Q 1341 3275 1631 3429 
Q 1922 3584 2338 3584 
Q 2397 3584 2469 3576 
Q 2541 3569 2628 3553 
L 2631 2963 
z
" transform="scale(0.015625)"/>
      <path id="DejaVuSans-61" d="M 2194 1759 
Q 1497 1759 1228 1600 
Q 959 1441 959 1056 
Q 959 750 1161 570 
Q 1363 391 1709 391 
Q 2188 391 2477 730 
Q 2766 1069 2766 1631 
L 2766 1759 
L 2194 1759 
z
M 3341 1997 
L 3341 0 
L 2766 0 
L 2766 531 
Q 2569 213 2275 61 
Q 1981 -91 1556 -91 
Q 1019 -91 701 211 
Q 384 513 384 1019 
Q 384 1609 779 1909 
Q 1175 2209 1959 2209 
L 2766 2209 
L 2766 2266 
Q 2766 2663 2505 2880 
Q 2244 3097 1772 3097 
Q 1472 3097 1187 3025 
Q 903 2953 641 2809 
L 641 3341 
Q 956 3463 1253 3523 
Q 1550 3584 1831 3584 
Q 2591 3584 2966 3190 
Q 3341 2797 3341 1997 
z
" transform="scale(0.015625)"/>
      <path id="DejaVuSans-64" d="M 2906 2969 
L 2906 4863 
L 3481 4863 
L 3481 0 
L 2906 0 
L 2906 525 
Q 2725 213 2448 61 
Q 2172 -91 1784 -91 
Q 1150 -91 751 415 
Q 353 922 353 1747 
Q 353 2572 751 3078 
Q 1150 3584 1784 3584 
Q 2172 3584 2448 3432 
Q 2725 3281 2906 2969 
z
M 947 1747 
Q 947 1113 1208 752 
Q 1469 391 1925 391 
Q 2381 391 2643 752 
Q 2906 1113 2906 1747 
Q 2906 2381 2643 2742 
Q 2381 3103 1925 3103 
Q 1469 3103 1208 2742 
Q 947 2381 947 1747 
z
" transform="scale(0.015625)"/>
      <path id="DejaVuSans-49" d="M 628 4666 
L 1259 4666 
L 1259 0 
L 628 0 
L 628 4666 
z
" transform="scale(0.015625)"/>
      <path id="DejaVuSans-70" d="M 1159 525 
L 1159 -1331 
L 581 -1331 
L 581 3500 
L 1159 3500 
L 1159 2969 
Q 1341 3281 1617 3432 
Q 1894 3584 2278 3584 
Q 2916 3584 3314 3078 
Q 3713 2572 3713 1747 
Q 3713 922 3314 415 
Q 2916 -91 2278 -91 
Q 1894 -91 1617 61 
Q 1341 213 1159 525 
z
M 3116 1747 
Q 3116 2381 2855 2742 
Q 2594 3103 2138 3103 
Q 1681 3103 1420 2742 
Q 1159 2381 1159 1747 
Q 1159 1113 1420 752 
Q 1681 391 2138 391 
Q 2594 391 2855 752 
Q 3116 1113 3116 1747 
z
" transform="scale(0.015625)"/>
      <path id="DejaVuSans-57" d="M 213 4666 
L 850 4666 
L 1831 722 
L 2809 4666 
L 3519 4666 
L 4500 722 
L 5478 4666 
L 6119 4666 
L 4947 0 
L 4153 0 
L 3169 4050 
L 2175 0 
L 1381 0 
L 213 4666 
z
" transform="scale(0.015625)"/>
      <path id="DejaVuSans-76" d="M 191 3500 
L 800 3500 
L 1894 563 
L 2988 3500 
L 3597 3500 
L 2284 0 
L 1503 0 
L 191 3500 
z
" transform="scale(0.015625)"/>
     </defs>
     <use xlink:href="#DejaVuSans-43"/>
     <use xlink:href="#DejaVuSans-6f" x="69.824219"/>
     <use xlink:href="#DejaVuSans-6e" x="131.005859"/>
     <use xlink:href="#DejaVuSans-74" x="194.384766"/>
     <use xlink:href="#DejaVuSans-72" x="233.59375"/>
     <use xlink:href="#DejaVuSans-61" x="274.707031"/>
     <use xlink:href="#DejaVuSans-20" x="335.986328"/>
     <use xlink:href="#DejaVuSans-61" x="367.773438"/>
     <use xlink:href="#DejaVuSans-6e" x="429.052734"/>
     <use xlink:href="#DejaVuSans-64" x="492.431641"/>
     <use xlink:href="#DejaVuSans-20" x="555.908203"/>
     <use xlink:href="#DejaVuSans-49" x="587.695312"/>
     <use xlink:href="#DejaVuSans-70" x="617.1875"/>
     <use xlink:href="#DejaVuSans-73" x="680.664062"/>
     <use xlink:href="#DejaVuSans-69" x="732.763672"/>
     <use xlink:href="#DejaVuSans-20" x="760.546875"/>
     <use xlink:href="#DejaVuSans-57" x="792.333984"/>
     <use xlink:href="#DejaVuSans-61" x="884.835938"/>
     <use xlink:href="#DejaVuSans-76" x="946.115234"/>
     <use xlink:href="#DejaVuSans-65" x="1005.294922"/>
     <use xlink:href="#DejaVuSans-73" x="1066.818359"/>
    </g>
   </g>
   <g id="legend_1">
    <g id="patch_7">
     <path d="M 260.285625 250.32 
L 380.4 250.32 
Q 382.8 250.32 382.8 247.92 
L 382.8 178.665 
Q 382.8 176.265 380.4 176.265 
L 260.285625 176.265 
Q 257.885625 176.265 257.885625 178.665 
L 257.885625 247.92 
Q 257.885625 250.32 260.285625 250.32 
z
" style="fill: #ffffff; opacity: 0.8; stroke: #cccccc; stroke-linejoin: miter"/>
    </g>
    <g id="line2d_17">
     <path d="M 262.685625 185.983125 
L 274.685625 185.983125 
L 286.685625 185.983125 
" style="fill: none; stroke: #ff7f0e; stroke-width: 1.5; stroke-linecap: square"/>
    </g>
    <g id="text_21">
     <!-- Colors Contra -->
     <g transform="translate(296.285625 190.183125) scale(0.12 -0.12)">
      <defs>
       <path id="DejaVuSans-6c" d="M 603 4863 
L 1178 4863 
L 1178 0 
L 603 0 
L 603 4863 
z
" transform="scale(0.015625)"/>
      </defs>
      <use xlink:href="#DejaVuSans-43"/>
      <use xlink:href="#DejaVuSans-6f" x="69.824219"/>
      <use xlink:href="#DejaVuSans-6c" x="131.005859"/>
      <use xlink:href="#DejaVuSans-6f" x="158.789062"/>
      <use xlink:href="#DejaVuSans-72" x="219.970703"/>
      <use xlink:href="#DejaVuSans-73" x="261.083984"/>
      <use xlink:href="#DejaVuSans-20" x="313.183594"/>
      <use xlink:href="#DejaVuSans-43" x="344.970703"/>
      <use xlink:href="#DejaVuSans-6f" x="414.794922"/>
      <use xlink:href="#DejaVuSans-6e" x="475.976562"/>
      <use xlink:href="#DejaVuSans-74" x="539.355469"/>
      <use xlink:href="#DejaVuSans-72" x="578.564453"/>
      <use xlink:href="#DejaVuSans-61" x="619.677734"/>
     </g>
    </g>
    <g id="line2d_18">
     <path d="M 262.685625 203.596875 
L 274.685625 203.596875 
L 286.685625 203.596875 
" style="fill: none; stroke-dasharray: 5.55,2.4; stroke-dashoffset: 0; stroke: #ff7f0e; stroke-width: 1.5"/>
    </g>
    <g id="text_22">
     <!-- Colors Ipsi -->
     <g transform="translate(296.285625 207.796875) scale(0.12 -0.12)">
      <use xlink:href="#DejaVuSans-43"/>
      <use xlink:href="#DejaVuSans-6f" x="69.824219"/>
      <use xlink:href="#DejaVuSans-6c" x="131.005859"/>
      <use xlink:href="#DejaVuSans-6f" x="158.789062"/>
      <use xlink:href="#DejaVuSans-72" x="219.970703"/>
      <use xlink:href="#DejaVuSans-73" x="261.083984"/>
      <use xlink:href="#DejaVuSans-20" x="313.183594"/>
      <use xlink:href="#DejaVuSans-49" x="344.970703"/>
      <use xlink:href="#DejaVuSans-70" x="374.462891"/>
      <use xlink:href="#DejaVuSans-73" x="437.939453"/>
      <use xlink:href="#DejaVuSans-69" x="490.039062"/>
     </g>
    </g>
    <g id="line2d_19">
     <path d="M 262.685625 221.210625 
L 274.685625 221.210625 
L 286.685625 221.210625 
" style="fill: none; stroke: #4c4c4c; stroke-width: 1.5; stroke-linecap: square"/>
    </g>
    <g id="text_23">
     <!-- Forms Contra -->
     <g transform="translate(296.285625 225.410625) scale(0.12 -0.12)">
      <defs>
       <path id="DejaVuSans-46" d="M 628 4666 
L 3309 4666 
L 3309 4134 
L 1259 4134 
L 1259 2759 
L 3109 2759 
L 3109 2228 
L 1259 2228 
L 1259 0 
L 628 0 
L 628 4666 
z
" transform="scale(0.015625)"/>
      </defs>
      <use xlink:href="#DejaVuSans-46"/>
      <use xlink:href="#DejaVuSans-6f" x="53.894531"/>
      <use xlink:href="#DejaVuSans-72" x="115.076172"/>
      <use xlink:href="#DejaVuSans-6d" x="154.439453"/>
      <use xlink:href="#DejaVuSans-73" x="251.851562"/>
      <use xlink:href="#DejaVuSans-20" x="303.951172"/>
      <use xlink:href="#DejaVuSans-43" x="335.738281"/>
      <use xlink:href="#DejaVuSans-6f" x="405.5625"/>
      <use xlink:href="#DejaVuSans-6e" x="466.744141"/>
      <use xlink:href="#DejaVuSans-74" x="530.123047"/>
      <use xlink:href="#DejaVuSans-72" x="569.332031"/>
      <use xlink:href="#DejaVuSans-61" x="610.445312"/>
     </g>
    </g>
    <g id="line2d_20">
     <path d="M 262.685625 238.824375 
L 274.685625 238.824375 
L 286.685625 238.824375 
" style="fill: none; stroke-dasharray: 5.55,2.4; stroke-dashoffset: 0; stroke: #4c4c4c; stroke-width: 1.5"/>
    </g>
    <g id="text_24">
     <!-- Forms Ipsi -->
     <g transform="translate(296.285625 243.024375) scale(0.12 -0.12)">
      <use xlink:href="#DejaVuSans-46"/>
      <use xlink:href="#DejaVuSans-6f" x="53.894531"/>
      <use xlink:href="#DejaVuSans-72" x="115.076172"/>
      <use xlink:href="#DejaVuSans-6d" x="154.439453"/>
      <use xlink:href="#DejaVuSans-73" x="251.851562"/>
      <use xlink:href="#DejaVuSans-20" x="303.951172"/>
      <use xlink:href="#DejaVuSans-49" x="335.738281"/>
      <use xlink:href="#DejaVuSans-70" x="365.230469"/>
      <use xlink:href="#DejaVuSans-73" x="428.707031"/>
      <use xlink:href="#DejaVuSans-69" x="480.806641"/>
     </g>
    </g>
   </g>
   <g id="line2d_21">
    <path d="M 54 148.59733 
L 56.408633 146.893174 
L 58.817266 145.451613 
L 61.225899 144.717377 
L 63.634532 144.586997 
L 66.043165 145.048498 
L 68.451799 145.66346 
L 75.677698 147.814308 
L 78.086331 148.020014 
L 80.494964 147.474564 
L 85.31223 144.718566 
L 87.720863 143.756361 
L 90.129496 143.446298 
L 94.946763 143.245422 
L 97.355396 143.283471 
L 99.764029 143.815803 
L 106.989928 146.446281 
L 109.398561 146.785311 
L 111.807194 146.675658 
L 114.215827 146.218096 
L 119.033094 144.800777 
L 121.441727 144.248707 
L 128.667626 143.076095 
L 131.076259 143.163953 
L 133.484892 143.840754 
L 135.893525 144.809732 
L 138.302158 145.586759 
L 140.710791 145.675088 
L 143.119424 145.016275 
L 145.528058 143.892657 
L 147.936691 142.966315 
L 150.345324 142.826642 
L 152.753957 143.71694 
L 157.571223 146.621768 
L 159.979856 147.599157 
L 162.388489 148.342888 
L 164.797122 148.965439 
L 167.205755 148.834263 
L 169.614388 146.481622 
L 172.023022 140.554035 
L 174.431655 130.598708 
L 176.840288 117.292901 
L 181.657554 86.633792 
L 184.066187 73.100031 
L 186.47482 63.041449 
L 188.883453 57.100745 
L 191.292086 55.020451 
L 193.700719 56.288992 
L 196.109353 60.650641 
L 198.517986 67.831291 
L 200.926619 77.145428 
L 203.335252 87.69232 
L 210.561151 121.295275 
L 212.969784 130.352133 
L 215.378417 136.51877 
L 217.78705 140.015364 
L 220.195683 141.857981 
L 222.604317 142.703704 
L 225.01295 142.402299 
L 227.421583 140.845115 
L 229.830216 138.691073 
L 232.238849 137.063548 
L 234.647482 136.563954 
L 237.056115 137.104577 
L 239.464748 138.453496 
L 241.873381 140.745175 
L 244.282014 144.074995 
L 249.099281 152.096284 
L 251.507914 155.600996 
L 256.32518 161.49809 
L 258.733813 164.456349 
L 261.142446 167.641576 
L 265.959712 174.59757 
L 270.776978 181.969474 
L 273.185612 186.002228 
L 278.002878 194.594867 
L 280.411511 198.126349 
L 282.820144 200.525953 
L 285.228777 201.983277 
L 290.046043 203.945819 
L 292.454676 205.165701 
L 297.271942 208.109913 
L 299.680576 209.357701 
L 302.089209 210.175379 
L 304.497842 210.6954 
L 314.132374 212.06757 
L 316.541007 213.029699 
L 318.94964 214.702584 
L 321.358273 216.580974 
L 323.766906 217.911709 
L 326.17554 218.034885 
L 328.584173 217.160182 
L 330.992806 215.854542 
L 333.401439 214.77574 
L 338.218705 213.116869 
L 340.627338 211.902559 
L 343.035971 210.214586 
L 345.444604 207.951589 
L 347.853237 205.33847 
L 350.261871 202.540349 
L 352.670504 200.099029 
L 355.079137 198.330058 
L 357.48777 197.491017 
L 359.896403 197.167886 
L 362.305036 196.957748 
L 364.713669 196.347309 
L 367.122302 195.418174 
L 369.530935 194.122112 
L 371.939568 192.572683 
L 374.348201 190.481513 
L 379.165468 185.521781 
L 381.574101 183.538737 
L 383.982734 182.091591 
L 386.391367 181.095748 
L 388.8 179.975291 
L 388.8 179.975291 
" style="fill: none; stroke: #ff7f0e; stroke-width: 1.5; stroke-linecap: square"/>
   </g>
   <g id="line2d_22">
    <path d="M 54 148.318327 
L 58.817266 145.598538 
L 61.225899 144.594927 
L 63.634532 144.046324 
L 66.043165 144.354152 
L 68.451799 145.294984 
L 70.860432 146.530373 
L 73.269065 147.226157 
L 75.677698 147.12935 
L 80.494964 145.44528 
L 82.903597 144.84339 
L 85.31223 144.641119 
L 87.720863 144.55316 
L 92.538129 144.668144 
L 94.946763 144.802478 
L 102.172662 144.798033 
L 104.581295 145.217715 
L 106.989928 145.775911 
L 109.398561 146.124741 
L 111.807194 145.879701 
L 116.62446 144.708651 
L 119.033094 144.701404 
L 126.258993 145.825718 
L 131.076259 146.044022 
L 133.484892 146.051321 
L 140.710791 145.557181 
L 143.119424 144.792289 
L 147.936691 141.671352 
L 150.345324 141.607291 
L 152.753957 143.55549 
L 155.16259 146.351014 
L 157.571223 148.632928 
L 159.979856 150.345777 
L 162.388489 152.27962 
L 164.797122 153.903021 
L 167.205755 152.965727 
L 169.614388 147.482525 
L 172.023022 137.756561 
L 174.431655 125.618677 
L 176.840288 112.435694 
L 181.657554 84.899354 
L 184.066187 73.215216 
L 186.47482 65.076397 
L 188.883453 60.332462 
L 191.292086 57.933781 
L 193.700719 57.742904 
L 196.109353 60.837485 
L 198.517986 67.869483 
L 200.926619 77.846302 
L 208.152518 111.492545 
L 210.561151 123.053853 
L 212.969784 133.709945 
L 215.378417 141.816897 
L 217.78705 146.620269 
L 220.195683 148.81148 
L 222.604317 149.731202 
L 225.01295 150.048447 
L 227.421583 149.507706 
L 229.830216 147.749586 
L 232.238849 145.344966 
L 234.647482 143.620148 
L 237.056115 143.658954 
L 239.464748 145.364405 
L 241.873381 147.803059 
L 244.282014 150.06782 
L 251.507914 155.697425 
L 253.916547 157.975024 
L 256.32518 160.707499 
L 261.142446 166.94417 
L 263.551079 169.724959 
L 265.959712 172.24041 
L 268.368345 175.014778 
L 270.776978 178.583113 
L 275.594245 186.898592 
L 278.002878 190.451595 
L 280.411511 193.428404 
L 282.820144 196.004514 
L 285.228777 198.356666 
L 287.63741 200.442926 
L 292.454676 204.184844 
L 294.863309 205.92971 
L 299.680576 208.941567 
L 302.089209 210.185708 
L 304.497842 211.196841 
L 306.906475 211.918578 
L 309.315108 212.794159 
L 311.723741 214.263676 
L 316.541007 218.583458 
L 318.94964 220.139943 
L 321.358273 221.023904 
L 326.17554 222.494228 
L 328.584173 222.853934 
L 330.992806 222.466943 
L 338.218705 220.057982 
L 340.627338 218.798339 
L 343.035971 216.823074 
L 345.444604 214.021641 
L 347.853237 210.655661 
L 350.261871 206.863795 
L 352.670504 203.370569 
L 355.079137 200.916507 
L 357.48777 200.026453 
L 359.896403 199.952401 
L 362.305036 199.647529 
L 364.713669 198.252235 
L 369.530935 193.885363 
L 371.939568 192.26403 
L 374.348201 191.348304 
L 379.165468 190.922237 
L 381.574101 190.087506 
L 383.982734 188.138088 
L 388.8 183.443295 
L 388.8 183.443295 
" style="fill: none; stroke-dasharray: 5.55,2.4; stroke-dashoffset: 0; stroke: #ff7f0e; stroke-width: 1.5"/>
   </g>
   <g id="line2d_23">
    <path d="M 54 147.543651 
L 56.408633 145.423689 
L 58.817266 144.215754 
L 61.225899 143.984543 
L 63.634532 144.622167 
L 70.860432 147.127484 
L 73.269065 147.466524 
L 75.677698 147.15824 
L 78.086331 146.585038 
L 80.494964 146.219337 
L 82.903597 146.525862 
L 85.31223 146.984669 
L 87.720863 146.885032 
L 90.129496 145.781855 
L 92.538129 144.305678 
L 94.946763 143.188929 
L 97.355396 142.812332 
L 104.581295 142.716075 
L 106.989928 143.023869 
L 111.807194 144.153105 
L 123.85036 146.050132 
L 126.258993 145.950441 
L 128.667626 145.365158 
L 133.484892 143.71603 
L 135.893525 143.395283 
L 140.710791 143.517008 
L 143.119424 143.020956 
L 145.528058 142.174979 
L 147.936691 141.59027 
L 150.345324 141.669553 
L 152.753957 142.186801 
L 155.16259 142.882321 
L 157.571223 144.017852 
L 159.979856 146.222564 
L 162.388489 149.681087 
L 164.797122 153.757806 
L 167.205755 157.03976 
L 169.614388 157.396721 
L 172.023022 152.194684 
L 174.431655 139.564092 
L 176.840288 120.281141 
L 179.248921 98.140349 
L 181.657554 77.720057 
L 184.066187 61.499894 
L 186.47482 49.526443 
L 188.883453 41.528227 
L 191.292086 38.428681 
L 193.700719 41.053056 
L 196.109353 48.225954 
L 203.335252 74.658717 
L 205.743885 84.653293 
L 208.152518 95.517977 
L 210.561151 105.721641 
L 212.969784 114.152345 
L 215.378417 121.05794 
L 217.78705 126.892926 
L 220.195683 131.352769 
L 222.604317 133.70293 
L 225.01295 134.065083 
L 227.421583 133.288988 
L 229.830216 132.009285 
L 232.238849 129.996272 
L 234.647482 127.221935 
L 237.056115 124.680472 
L 239.464748 124.126498 
L 241.873381 126.411473 
L 244.282014 130.905507 
L 246.690647 136.05887 
L 249.099281 140.912531 
L 258.733813 158.789915 
L 261.142446 161.946827 
L 263.551079 163.451459 
L 265.959712 163.267984 
L 268.368345 162.203242 
L 270.776978 161.284251 
L 273.185612 161.42658 
L 275.594245 162.81485 
L 278.002878 165.341064 
L 280.411511 168.64534 
L 282.820144 172.53733 
L 292.454676 188.989834 
L 294.863309 192.644736 
L 297.271942 195.57641 
L 299.680576 197.439583 
L 302.089209 198.541097 
L 306.906475 200.077473 
L 309.315108 200.947037 
L 311.723741 202.056641 
L 314.132374 203.41997 
L 316.541007 205.036709 
L 318.94964 206.331919 
L 321.358273 207.014865 
L 326.17554 207.285918 
L 328.584173 207.53107 
L 330.992806 207.473038 
L 333.401439 206.472169 
L 347.853237 196.810224 
L 350.261871 196.246622 
L 352.670504 196.423214 
L 355.079137 197.065663 
L 357.48777 197.870819 
L 359.896403 199.075519 
L 362.305036 199.945136 
L 364.713669 199.478447 
L 367.122302 197.021974 
L 369.530935 193.972834 
L 371.939568 191.926367 
L 374.348201 191.506278 
L 376.756835 191.237724 
L 379.165468 190.152711 
L 381.574101 188.232623 
L 386.391367 184.788827 
L 388.8 182.493636 
L 388.8 182.493636 
" style="fill: none; stroke: #4c4c4c; stroke-width: 1.5; stroke-linecap: square"/>
   </g>
   <g id="line2d_24">
    <path d="M 54 146.849065 
L 56.408633 144.91225 
L 58.817266 143.851058 
L 61.225899 143.681085 
L 63.634532 143.890178 
L 66.043165 144.296146 
L 68.451799 145.060058 
L 70.860432 146.007259 
L 73.269065 146.470502 
L 75.677698 146.128052 
L 78.086331 145.561678 
L 80.494964 145.651766 
L 85.31223 147.345767 
L 87.720863 147.474674 
L 90.129496 146.901733 
L 94.946763 145.336935 
L 99.764029 144.026345 
L 102.172662 143.559244 
L 104.581295 143.338591 
L 106.989928 143.346595 
L 109.398561 143.581941 
L 116.62446 144.856594 
L 119.033094 144.819671 
L 121.441727 144.659497 
L 128.667626 144.618557 
L 133.484892 143.367798 
L 135.893525 143.147646 
L 138.302158 143.345418 
L 140.710791 143.404401 
L 143.119424 142.916427 
L 145.528058 142.079295 
L 147.936691 141.435744 
L 150.345324 141.270969 
L 152.753957 141.534367 
L 155.16259 142.182472 
L 157.571223 143.426313 
L 159.979856 145.565405 
L 162.388489 148.797486 
L 167.205755 156.922846 
L 169.614388 158.137636 
L 172.023022 153.150389 
L 174.431655 139.779993 
L 176.840288 119.220067 
L 179.248921 95.892673 
L 181.657554 74.972731 
L 184.066187 59.647594 
L 186.47482 50.331946 
L 188.883453 45.775588 
L 191.292086 44.665239 
L 193.700719 46.411581 
L 196.109353 51.049367 
L 198.517986 58.566357 
L 200.926619 68.35379 
L 210.561151 111.612937 
L 212.969784 121.64827 
L 215.378417 130.161597 
L 217.78705 136.56325 
L 220.195683 141.334489 
L 225.01295 149.561652 
L 227.421583 153.142702 
L 229.830216 155.72419 
L 234.647482 158.950134 
L 237.056115 161.222559 
L 239.464748 164.66872 
L 244.282014 173.363931 
L 246.690647 176.598143 
L 249.099281 178.185982 
L 251.507914 178.484438 
L 258.733813 178.01813 
L 261.142446 177.127453 
L 263.551079 175.134294 
L 265.959712 172.080332 
L 268.368345 168.575231 
L 270.776978 165.435621 
L 273.185612 163.053334 
L 275.594245 161.124262 
L 278.002878 159.431886 
L 280.411511 158.852981 
L 282.820144 161.140224 
L 285.228777 167.188807 
L 290.046043 184.445429 
L 292.454676 191.533571 
L 294.863309 197.204522 
L 299.680576 207.379683 
L 302.089209 211.835748 
L 304.497842 215.394348 
L 306.906475 217.972296 
L 309.315108 219.435043 
L 311.723741 219.663363 
L 314.132374 218.975802 
L 316.541007 218.163516 
L 318.94964 217.803937 
L 323.766906 217.879233 
L 328.584173 217.581733 
L 330.992806 217.161451 
L 333.401439 216.288549 
L 335.810072 214.970481 
L 340.627338 211.899779 
L 345.444604 208.486998 
L 347.853237 206.791831 
L 352.670504 203.642191 
L 355.079137 201.856824 
L 357.48777 200.224719 
L 359.896403 199.312902 
L 364.713669 199.125646 
L 367.122302 198.388142 
L 369.530935 196.829133 
L 371.939568 194.935456 
L 374.348201 193.19265 
L 379.165468 189.977215 
L 383.982734 186.204016 
L 388.8 182.249647 
L 388.8 182.249647 
" style="fill: none; stroke-dasharray: 5.55,2.4; stroke-dashoffset: 0; stroke: #4c4c4c; stroke-width: 1.5"/>
   </g>
  </g>
 </g>
 <defs>
  <clipPath id="p998410a34f">
   <rect x="54" y="34.56" width="334.8" height="221.76"/>
  </clipPath>
 </defs>
</svg>
