<?xml version="1.0" encoding="utf-8" standalone="no"?>
<!DOCTYPE svg PUBLIC "-//W3C//DTD SVG 1.1//EN"
  "http://www.w3.org/Graphics/SVG/1.1/DTD/svg11.dtd">
<svg xmlns:xlink="http://www.w3.org/1999/xlink" width="576pt" height="432pt" viewBox="0 0 576 432" xmlns="http://www.w3.org/2000/svg" version="1.1">
 <metadata>
  <rdf:RDF xmlns:dc="http://purl.org/dc/elements/1.1/" xmlns:cc="http://creativecommons.org/ns#" xmlns:rdf="http://www.w3.org/1999/02/22-rdf-syntax-ns#">
   <cc:Work>
    <dc:type rdf:resource="http://purl.org/dc/dcmitype/StillImage"/>
    <dc:date>2023-02-15T19:56:57.765382</dc:date>
    <dc:format>image/svg+xml</dc:format>
    <dc:creator>
     <cc:Agent>
      <dc:title>Matplotlib v3.7.0, https://matplotlib.org/</dc:title>
     </cc:Agent>
    </dc:creator>
   </cc:Work>
  </rdf:RDF>
 </metadata>
 <defs>
  <style type="text/css">*{stroke-linejoin: round; stroke-linecap: butt}</style>
 </defs>
 <g id="figure_1">
  <g id="patch_1">
   <path d="M 0 432 
L 576 432 
L 576 0 
L 0 0 
z
" style="fill: #ffffff"/>
  </g>
  <g id="axes_1">
   <g id="patch_2">
    <path d="M 72 378 
L 518.4 378 
L 518.4 51.84 
L 72 51.84 
L 72 378 
z
" style="fill: none; opacity: 0"/>
   </g>
   <g id="patch_3">
    <path d="M 72 350.82 
L 72 79.02 
" style="fill: none; stroke: #000000; stroke-width: 0.8; stroke-linejoin: miter; stroke-linecap: square"/>
   </g>
   <g id="LineCollection_1">
    <path d="M 135.771429 51.84 
L 135.771429 378 
" clip-path="url(#p9804c18d2a)" style="fill: none; stroke-dasharray: 3.7,1.6; stroke-dashoffset: 0; stroke: #000000"/>
   </g>
   <g id="patch_4">
    <path d="M 276.068571 378 
L 276.068571 214.92 
L 327.085714 214.92 
L 327.085714 378 
z
" clip-path="url(#p9804c18d2a)" style="fill: #808080; opacity: 0.5; stroke: #808080; stroke-linejoin: miter"/>
   </g>
   <g id="matplotlib.axis_1">
    <g id="xtick_1">
     <g id="line2d_1">
      <defs>
       <path id="m4fd15ab1d9" d="M 0 0 
L 0 3.5 
" style="stroke: #000000; stroke-width: 0.8"/>
      </defs>
      <g>
       <use xlink:href="#m4fd15ab1d9" x="72" y="378" style="stroke: #000000; stroke-width: 0.8"/>
      </g>
     </g>
     <g id="text_1">
      <!-- −100 -->
      <g transform="translate(58.266406 392.598437) scale(0.1 -0.1)">
       <defs>
        <path id="DejaVuSans-2212" d="M 678 2272 
L 4684 2272 
L 4684 1741 
L 678 1741 
L 678 2272 
z
" transform="scale(0.015625)"/>
        <path id="DejaVuSans-31" d="M 794 531 
L 1825 531 
L 1825 4091 
L 703 3866 
L 703 4441 
L 1819 4666 
L 2450 4666 
L 2450 531 
L 3481 531 
L 3481 0 
L 794 0 
L 794 531 
z
" transform="scale(0.015625)"/>
        <path id="DejaVuSans-30" d="M 2034 4250 
Q 1547 4250 1301 3770 
Q 1056 3291 1056 2328 
Q 1056 1369 1301 889 
Q 1547 409 2034 409 
Q 2525 409 2770 889 
Q 3016 1369 3016 2328 
Q 3016 3291 2770 3770 
Q 2525 4250 2034 4250 
z
M 2034 4750 
Q 2819 4750 3233 4129 
Q 3647 3509 3647 2328 
Q 3647 1150 3233 529 
Q 2819 -91 2034 -91 
Q 1250 -91 836 529 
Q 422 1150 422 2328 
Q 422 3509 836 4129 
Q 1250 4750 2034 4750 
z
" transform="scale(0.015625)"/>
       </defs>
       <use xlink:href="#DejaVuSans-2212"/>
       <use xlink:href="#DejaVuSans-31" x="83.789062"/>
       <use xlink:href="#DejaVuSans-30" x="147.412109"/>
       <use xlink:href="#DejaVuSans-30" x="211.035156"/>
      </g>
     </g>
    </g>
    <g id="xtick_2">
     <g id="line2d_2">
      <g>
       <use xlink:href="#m4fd15ab1d9" x="135.771429" y="378" style="stroke: #000000; stroke-width: 0.8"/>
      </g>
     </g>
     <g id="text_2">
      <!-- 0 -->
      <g transform="translate(132.590179 392.598437) scale(0.1 -0.1)">
       <use xlink:href="#DejaVuSans-30"/>
      </g>
     </g>
    </g>
    <g id="xtick_3">
     <g id="line2d_3">
      <g>
       <use xlink:href="#m4fd15ab1d9" x="199.542857" y="378" style="stroke: #000000; stroke-width: 0.8"/>
      </g>
     </g>
     <g id="text_3">
      <!-- 100 -->
      <g transform="translate(189.999107 392.598437) scale(0.1 -0.1)">
       <use xlink:href="#DejaVuSans-31"/>
       <use xlink:href="#DejaVuSans-30" x="63.623047"/>
       <use xlink:href="#DejaVuSans-30" x="127.246094"/>
      </g>
     </g>
    </g>
    <g id="xtick_4">
     <g id="line2d_4">
      <g>
       <use xlink:href="#m4fd15ab1d9" x="263.314286" y="378" style="stroke: #000000; stroke-width: 0.8"/>
      </g>
     </g>
     <g id="text_4">
      <!-- 200 -->
      <g transform="translate(253.770536 392.598437) scale(0.1 -0.1)">
       <defs>
        <path id="DejaVuSans-32" d="M 1228 531 
L 3431 531 
L 3431 0 
L 469 0 
L 469 531 
Q 828 903 1448 1529 
Q 2069 2156 2228 2338 
Q 2531 2678 2651 2914 
Q 2772 3150 2772 3378 
Q 2772 3750 2511 3984 
Q 2250 4219 1831 4219 
Q 1534 4219 1204 4116 
Q 875 4013 500 3803 
L 500 4441 
Q 881 4594 1212 4672 
Q 1544 4750 1819 4750 
Q 2544 4750 2975 4387 
Q 3406 4025 3406 3419 
Q 3406 3131 3298 2873 
Q 3191 2616 2906 2266 
Q 2828 2175 2409 1742 
Q 1991 1309 1228 531 
z
" transform="scale(0.015625)"/>
       </defs>
       <use xlink:href="#DejaVuSans-32"/>
       <use xlink:href="#DejaVuSans-30" x="63.623047"/>
       <use xlink:href="#DejaVuSans-30" x="127.246094"/>
      </g>
     </g>
    </g>
    <g id="xtick_5">
     <g id="line2d_5">
      <g>
       <use xlink:href="#m4fd15ab1d9" x="327.085714" y="378" style="stroke: #000000; stroke-width: 0.8"/>
      </g>
     </g>
     <g id="text_5">
      <!-- 300 -->
      <g transform="translate(317.541964 392.598437) scale(0.1 -0.1)">
       <defs>
        <path id="DejaVuSans-33" d="M 2597 2516 
Q 3050 2419 3304 2112 
Q 3559 1806 3559 1356 
Q 3559 666 3084 287 
Q 2609 -91 1734 -91 
Q 1441 -91 1130 -33 
Q 819 25 488 141 
L 488 750 
Q 750 597 1062 519 
Q 1375 441 1716 441 
Q 2309 441 2620 675 
Q 2931 909 2931 1356 
Q 2931 1769 2642 2001 
Q 2353 2234 1838 2234 
L 1294 2234 
L 1294 2753 
L 1863 2753 
Q 2328 2753 2575 2939 
Q 2822 3125 2822 3475 
Q 2822 3834 2567 4026 
Q 2313 4219 1838 4219 
Q 1578 4219 1281 4162 
Q 984 4106 628 3988 
L 628 4550 
Q 988 4650 1302 4700 
Q 1616 4750 1894 4750 
Q 2613 4750 3031 4423 
Q 3450 4097 3450 3541 
Q 3450 3153 3228 2886 
Q 3006 2619 2597 2516 
z
" transform="scale(0.015625)"/>
       </defs>
       <use xlink:href="#DejaVuSans-33"/>
       <use xlink:href="#DejaVuSans-30" x="63.623047"/>
       <use xlink:href="#DejaVuSans-30" x="127.246094"/>
      </g>
     </g>
    </g>
    <g id="xtick_6">
     <g id="line2d_6">
      <g>
       <use xlink:href="#m4fd15ab1d9" x="390.857143" y="378" style="stroke: #000000; stroke-width: 0.8"/>
      </g>
     </g>
     <g id="text_6">
      <!-- 400 -->
      <g transform="translate(381.313393 392.598437) scale(0.1 -0.1)">
       <defs>
        <path id="DejaVuSans-34" d="M 2419 4116 
L 825 1625 
L 2419 1625 
L 2419 4116 
z
M 2253 4666 
L 3047 4666 
L 3047 1625 
L 3713 1625 
L 3713 1100 
L 3047 1100 
L 3047 0 
L 2419 0 
L 2419 1100 
L 313 1100 
L 313 1709 
L 2253 4666 
z
" transform="scale(0.015625)"/>
       </defs>
       <use xlink:href="#DejaVuSans-34"/>
       <use xlink:href="#DejaVuSans-30" x="63.623047"/>
       <use xlink:href="#DejaVuSans-30" x="127.246094"/>
      </g>
     </g>
    </g>
    <g id="xtick_7">
     <g id="line2d_7">
      <g>
       <use xlink:href="#m4fd15ab1d9" x="454.628571" y="378" style="stroke: #000000; stroke-width: 0.8"/>
      </g>
     </g>
     <g id="text_7">
      <!-- 500 -->
      <g transform="translate(445.084821 392.598437) scale(0.1 -0.1)">
       <defs>
        <path id="DejaVuSans-35" d="M 691 4666 
L 3169 4666 
L 3169 4134 
L 1269 4134 
L 1269 2991 
Q 1406 3038 1543 3061 
Q 1681 3084 1819 3084 
Q 2600 3084 3056 2656 
Q 3513 2228 3513 1497 
Q 3513 744 3044 326 
Q 2575 -91 1722 -91 
Q 1428 -91 1123 -41 
Q 819 9 494 109 
L 494 744 
Q 775 591 1075 516 
Q 1375 441 1709 441 
Q 2250 441 2565 725 
Q 2881 1009 2881 1497 
Q 2881 1984 2565 2268 
Q 2250 2553 1709 2553 
Q 1456 2553 1204 2497 
Q 953 2441 691 2322 
L 691 4666 
z
" transform="scale(0.015625)"/>
       </defs>
       <use xlink:href="#DejaVuSans-35"/>
       <use xlink:href="#DejaVuSans-30" x="63.623047"/>
       <use xlink:href="#DejaVuSans-30" x="127.246094"/>
      </g>
     </g>
    </g>
    <g id="xtick_8">
     <g id="line2d_8">
      <g>
       <use xlink:href="#m4fd15ab1d9" x="518.4" y="378" style="stroke: #000000; stroke-width: 0.8"/>
      </g>
     </g>
     <g id="text_8">
      <!-- 600 -->
      <g transform="translate(508.85625 392.598437) scale(0.1 -0.1)">
       <defs>
        <path id="DejaVuSans-36" d="M 2113 2584 
Q 1688 2584 1439 2293 
Q 1191 2003 1191 1497 
Q 1191 994 1439 701 
Q 1688 409 2113 409 
Q 2538 409 2786 701 
Q 3034 994 3034 1497 
Q 3034 2003 2786 2293 
Q 2538 2584 2113 2584 
z
M 3366 4563 
L 3366 3988 
Q 3128 4100 2886 4159 
Q 2644 4219 2406 4219 
Q 1781 4219 1451 3797 
Q 1122 3375 1075 2522 
Q 1259 2794 1537 2939 
Q 1816 3084 2150 3084 
Q 2853 3084 3261 2657 
Q 3669 2231 3669 1497 
Q 3669 778 3244 343 
Q 2819 -91 2113 -91 
Q 1303 -91 875 529 
Q 447 1150 447 2328 
Q 447 3434 972 4092 
Q 1497 4750 2381 4750 
Q 2619 4750 2861 4703 
Q 3103 4656 3366 4563 
z
" transform="scale(0.015625)"/>
       </defs>
       <use xlink:href="#DejaVuSans-36"/>
       <use xlink:href="#DejaVuSans-30" x="63.623047"/>
       <use xlink:href="#DejaVuSans-30" x="127.246094"/>
      </g>
     </g>
    </g>
    <g id="text_9">
     <!-- Time (ms) -->
     <g transform="translate(270.000781 406.276563) scale(0.1 -0.1)">
      <defs>
       <path id="DejaVuSans-54" d="M -19 4666 
L 3928 4666 
L 3928 4134 
L 2272 4134 
L 2272 0 
L 1638 0 
L 1638 4134 
L -19 4134 
L -19 4666 
z
" transform="scale(0.015625)"/>
       <path id="DejaVuSans-69" d="M 603 3500 
L 1178 3500 
L 1178 0 
L 603 0 
L 603 3500 
z
M 603 4863 
L 1178 4863 
L 1178 4134 
L 603 4134 
L 603 4863 
z
" transform="scale(0.015625)"/>
       <path id="DejaVuSans-6d" d="M 3328 2828 
Q 3544 3216 3844 3400 
Q 4144 3584 4550 3584 
Q 5097 3584 5394 3201 
Q 5691 2819 5691 2113 
L 5691 0 
L 5113 0 
L 5113 2094 
Q 5113 2597 4934 2840 
Q 4756 3084 4391 3084 
Q 3944 3084 3684 2787 
Q 3425 2491 3425 1978 
L 3425 0 
L 2847 0 
L 2847 2094 
Q 2847 2600 2669 2842 
Q 2491 3084 2119 3084 
Q 1678 3084 1418 2786 
Q 1159 2488 1159 1978 
L 1159 0 
L 581 0 
L 581 3500 
L 1159 3500 
L 1159 2956 
Q 1356 3278 1631 3431 
Q 1906 3584 2284 3584 
Q 2666 3584 2933 3390 
Q 3200 3197 3328 2828 
z
" transform="scale(0.015625)"/>
       <path id="DejaVuSans-65" d="M 3597 1894 
L 3597 1613 
L 953 1613 
Q 991 1019 1311 708 
Q 1631 397 2203 397 
Q 2534 397 2845 478 
Q 3156 559 3463 722 
L 3463 178 
Q 3153 47 2828 -22 
Q 2503 -91 2169 -91 
Q 1331 -91 842 396 
Q 353 884 353 1716 
Q 353 2575 817 3079 
Q 1281 3584 2069 3584 
Q 2775 3584 3186 3129 
Q 3597 2675 3597 1894 
z
M 3022 2063 
Q 3016 2534 2758 2815 
Q 2500 3097 2075 3097 
Q 1594 3097 1305 2825 
Q 1016 2553 972 2059 
L 3022 2063 
z
" transform="scale(0.015625)"/>
       <path id="DejaVuSans-20" transform="scale(0.015625)"/>
       <path id="DejaVuSans-28" d="M 1984 4856 
Q 1566 4138 1362 3434 
Q 1159 2731 1159 2009 
Q 1159 1288 1364 580 
Q 1569 -128 1984 -844 
L 1484 -844 
Q 1016 -109 783 600 
Q 550 1309 550 2009 
Q 550 2706 781 3412 
Q 1013 4119 1484 4856 
L 1984 4856 
z
" transform="scale(0.015625)"/>
       <path id="DejaVuSans-73" d="M 2834 3397 
L 2834 2853 
Q 2591 2978 2328 3040 
Q 2066 3103 1784 3103 
Q 1356 3103 1142 2972 
Q 928 2841 928 2578 
Q 928 2378 1081 2264 
Q 1234 2150 1697 2047 
L 1894 2003 
Q 2506 1872 2764 1633 
Q 3022 1394 3022 966 
Q 3022 478 2636 193 
Q 2250 -91 1575 -91 
Q 1294 -91 989 -36 
Q 684 19 347 128 
L 347 722 
Q 666 556 975 473 
Q 1284 391 1588 391 
Q 1994 391 2212 530 
Q 2431 669 2431 922 
Q 2431 1156 2273 1281 
Q 2116 1406 1581 1522 
L 1381 1569 
Q 847 1681 609 1914 
Q 372 2147 372 2553 
Q 372 3047 722 3315 
Q 1072 3584 1716 3584 
Q 2034 3584 2315 3537 
Q 2597 3491 2834 3397 
z
" transform="scale(0.015625)"/>
       <path id="DejaVuSans-29" d="M 513 4856 
L 1013 4856 
Q 1481 4119 1714 3412 
Q 1947 2706 1947 2009 
Q 1947 1309 1714 600 
Q 1481 -109 1013 -844 
L 513 -844 
Q 928 -128 1133 580 
Q 1338 1288 1338 2009 
Q 1338 2731 1133 3434 
Q 928 4138 513 4856 
z
" transform="scale(0.015625)"/>
      </defs>
      <use xlink:href="#DejaVuSans-54"/>
      <use xlink:href="#DejaVuSans-69" x="57.958984"/>
      <use xlink:href="#DejaVuSans-6d" x="85.742188"/>
      <use xlink:href="#DejaVuSans-65" x="183.154297"/>
      <use xlink:href="#DejaVuSans-20" x="244.677734"/>
      <use xlink:href="#DejaVuSans-28" x="276.464844"/>
      <use xlink:href="#DejaVuSans-6d" x="315.478516"/>
      <use xlink:href="#DejaVuSans-73" x="412.890625"/>
      <use xlink:href="#DejaVuSans-29" x="464.990234"/>
     </g>
    </g>
   </g>
   <g id="matplotlib.axis_2">
    <g id="ytick_1">
     <g id="line2d_9">
      <defs>
       <path id="mdac9eff182" d="M 0 0 
L -3.5 0 
" style="stroke: #000000; stroke-width: 0.8"/>
      </defs>
      <g>
       <use xlink:href="#mdac9eff182" x="72" y="350.82" style="stroke: #000000; stroke-width: 0.8"/>
      </g>
     </g>
     <g id="text_10">
      <!-- −3 -->
      <g transform="translate(50.257812 354.619219) scale(0.1 -0.1)">
       <use xlink:href="#DejaVuSans-2212"/>
       <use xlink:href="#DejaVuSans-33" x="83.789062"/>
      </g>
     </g>
    </g>
    <g id="ytick_2">
     <g id="line2d_10">
      <g>
       <use xlink:href="#mdac9eff182" x="72" y="305.52" style="stroke: #000000; stroke-width: 0.8"/>
      </g>
     </g>
     <g id="text_11">
      <!-- −2 -->
      <g transform="translate(50.257812 309.319219) scale(0.1 -0.1)">
       <use xlink:href="#DejaVuSans-2212"/>
       <use xlink:href="#DejaVuSans-32" x="83.789062"/>
      </g>
     </g>
    </g>
    <g id="ytick_3">
     <g id="line2d_11">
      <g>
       <use xlink:href="#mdac9eff182" x="72" y="260.22" style="stroke: #000000; stroke-width: 0.8"/>
      </g>
     </g>
     <g id="text_12">
      <!-- −1 -->
      <g transform="translate(50.257812 264.019219) scale(0.1 -0.1)">
       <use xlink:href="#DejaVuSans-2212"/>
       <use xlink:href="#DejaVuSans-31" x="83.789062"/>
      </g>
     </g>
    </g>
    <g id="ytick_4">
     <g id="line2d_12">
      <g>
       <use xlink:href="#mdac9eff182" x="72" y="214.92" style="stroke: #000000; stroke-width: 0.8"/>
      </g>
     </g>
     <g id="text_13">
      <!-- 0 -->
      <g transform="translate(58.6375 218.719219) scale(0.1 -0.1)">
       <use xlink:href="#DejaVuSans-30"/>
      </g>
     </g>
    </g>
    <g id="ytick_5">
     <g id="line2d_13">
      <g>
       <use xlink:href="#mdac9eff182" x="72" y="169.62" style="stroke: #000000; stroke-width: 0.8"/>
      </g>
     </g>
     <g id="text_14">
      <!-- 1 -->
      <g transform="translate(58.6375 173.419219) scale(0.1 -0.1)">
       <use xlink:href="#DejaVuSans-31"/>
      </g>
     </g>
    </g>
    <g id="ytick_6">
     <g id="line2d_14">
      <g>
       <use xlink:href="#mdac9eff182" x="72" y="124.32" style="stroke: #000000; stroke-width: 0.8"/>
      </g>
     </g>
     <g id="text_15">
      <!-- 2 -->
      <g transform="translate(58.6375 128.119219) scale(0.1 -0.1)">
       <use xlink:href="#DejaVuSans-32"/>
      </g>
     </g>
    </g>
    <g id="ytick_7">
     <g id="line2d_15">
      <g>
       <use xlink:href="#mdac9eff182" x="72" y="79.02" style="stroke: #000000; stroke-width: 0.8"/>
      </g>
     </g>
     <g id="text_16">
      <!-- 3 -->
      <g transform="translate(58.6375 82.819219) scale(0.1 -0.1)">
       <use xlink:href="#DejaVuSans-33"/>
      </g>
     </g>
    </g>
    <g id="text_17">
     <!-- µV -->
     <g transform="translate(44.178125 221.521562) rotate(-90) scale(0.1 -0.1)">
      <defs>
       <path id="DejaVuSans-b5" d="M 544 -1331 
L 544 3500 
L 1119 3500 
L 1119 1325 
Q 1119 872 1334 640 
Q 1550 409 1972 409 
Q 2434 409 2667 671 
Q 2900 934 2900 1459 
L 2900 3500 
L 3475 3500 
L 3475 806 
Q 3475 619 3529 530 
Q 3584 441 3700 441 
Q 3728 441 3778 458 
Q 3828 475 3916 513 
L 3916 50 
Q 3788 -22 3673 -56 
Q 3559 -91 3450 -91 
Q 3234 -91 3106 31 
Q 2978 153 2931 403 
Q 2775 156 2548 32 
Q 2322 -91 2016 -91 
Q 1697 -91 1473 31 
Q 1250 153 1119 397 
L 1119 -1331 
L 544 -1331 
z
" transform="scale(0.015625)"/>
       <path id="DejaVuSans-56" d="M 1831 0 
L 50 4666 
L 709 4666 
L 2188 738 
L 3669 4666 
L 4325 4666 
L 2547 0 
L 1831 0 
z
" transform="scale(0.015625)"/>
      </defs>
      <use xlink:href="#DejaVuSans-b5"/>
      <use xlink:href="#DejaVuSans-56" x="63.623047"/>
     </g>
    </g>
   </g>
   <g id="patch_5">
    <path d="M 72 378 
L 518.4 378 
" style="fill: none; stroke: #000000; stroke-width: 0.8; stroke-linejoin: miter; stroke-linecap: square"/>
   </g>
   <g id="patch_6">
    <path d="M 72 214.92 
L 518.4 214.92 
" style="fill: none; stroke: #000000; stroke-width: 0.8; stroke-linejoin: miter; stroke-linecap: square"/>
   </g>
   <g id="legend_1">
    <g id="patch_7">
     <path d="M 344.785937 89.19625 
L 511.4 89.19625 
Q 513.4 89.19625 513.4 87.19625 
L 513.4 58.84 
Q 513.4 56.84 511.4 56.84 
L 344.785937 56.84 
Q 342.785937 56.84 342.785937 58.84 
L 342.785937 87.19625 
Q 342.785937 89.19625 344.785937 89.19625 
z
" style="fill: #ffffff; opacity: 0.8; stroke: #cccccc; stroke-linejoin: miter"/>
    </g>
    <g id="line2d_16">
     <path d="M 346.785937 64.938437 
L 356.785937 64.938437 
L 366.785937 64.938437 
" style="fill: none; stroke: #ff7f0e; stroke-width: 1.5; stroke-linecap: square"/>
    </g>
    <g id="text_18">
     <!-- Colors Contra − Colors Ipsi -->
     <g transform="translate(374.785937 68.438437) scale(0.1 -0.1)">
      <defs>
       <path id="DejaVuSans-43" d="M 4122 4306 
L 4122 3641 
Q 3803 3938 3442 4084 
Q 3081 4231 2675 4231 
Q 1875 4231 1450 3742 
Q 1025 3253 1025 2328 
Q 1025 1406 1450 917 
Q 1875 428 2675 428 
Q 3081 428 3442 575 
Q 3803 722 4122 1019 
L 4122 359 
Q 3791 134 3420 21 
Q 3050 -91 2638 -91 
Q 1578 -91 968 557 
Q 359 1206 359 2328 
Q 359 3453 968 4101 
Q 1578 4750 2638 4750 
Q 3056 4750 3426 4639 
Q 3797 4528 4122 4306 
z
" transform="scale(0.015625)"/>
       <path id="DejaVuSans-6f" d="M 1959 3097 
Q 1497 3097 1228 2736 
Q 959 2375 959 1747 
Q 959 1119 1226 758 
Q 1494 397 1959 397 
Q 2419 397 2687 759 
Q 2956 1122 2956 1747 
Q 2956 2369 2687 2733 
Q 2419 3097 1959 3097 
z
M 1959 3584 
Q 2709 3584 3137 3096 
Q 3566 2609 3566 1747 
Q 3566 888 3137 398 
Q 2709 -91 1959 -91 
Q 1206 -91 779 398 
Q 353 888 353 1747 
Q 353 2609 779 3096 
Q 1206 3584 1959 3584 
z
" transform="scale(0.015625)"/>
       <path id="DejaVuSans-6c" d="M 603 4863 
L 1178 4863 
L 1178 0 
L 603 0 
L 603 4863 
z
" transform="scale(0.015625)"/>
       <path id="DejaVuSans-72" d="M 2631 2963 
Q 2534 3019 2420 3045 
Q 2306 3072 2169 3072 
Q 1681 3072 1420 2755 
Q 1159 2438 1159 1844 
L 1159 0 
L 581 0 
L 581 3500 
L 1159 3500 
L 1159 2956 
Q 1341 3275 1631 3429 
Q 1922 3584 2338 3584 
Q 2397 3584 2469 3576 
Q 2541 3569 2628 3553 
L 2631 2963 
z
" transform="scale(0.015625)"/>
       <path id="DejaVuSans-6e" d="M 3513 2113 
L 3513 0 
L 2938 0 
L 2938 2094 
Q 2938 2591 2744 2837 
Q 2550 3084 2163 3084 
Q 1697 3084 1428 2787 
Q 1159 2491 1159 1978 
L 1159 0 
L 581 0 
L 581 3500 
L 1159 3500 
L 1159 2956 
Q 1366 3272 1645 3428 
Q 1925 3584 2291 3584 
Q 2894 3584 3203 3211 
Q 3513 2838 3513 2113 
z
" transform="scale(0.015625)"/>
       <path id="DejaVuSans-74" d="M 1172 4494 
L 1172 3500 
L 2356 3500 
L 2356 3053 
L 1172 3053 
L 1172 1153 
Q 1172 725 1289 603 
Q 1406 481 1766 481 
L 2356 481 
L 2356 0 
L 1766 0 
Q 1100 0 847 248 
Q 594 497 594 1153 
L 594 3053 
L 172 3053 
L 172 3500 
L 594 3500 
L 594 4494 
L 1172 4494 
z
" transform="scale(0.015625)"/>
       <path id="DejaVuSans-61" d="M 2194 1759 
Q 1497 1759 1228 1600 
Q 959 1441 959 1056 
Q 959 750 1161 570 
Q 1363 391 1709 391 
Q 2188 391 2477 730 
Q 2766 1069 2766 1631 
L 2766 1759 
L 2194 1759 
z
M 3341 1997 
L 3341 0 
L 2766 0 
L 2766 531 
Q 2569 213 2275 61 
Q 1981 -91 1556 -91 
Q 1019 -91 701 211 
Q 384 513 384 1019 
Q 384 1609 779 1909 
Q 1175 2209 1959 2209 
L 2766 2209 
L 2766 2266 
Q 2766 2663 2505 2880 
Q 2244 3097 1772 3097 
Q 1472 3097 1187 3025 
Q 903 2953 641 2809 
L 641 3341 
Q 956 3463 1253 3523 
Q 1550 3584 1831 3584 
Q 2591 3584 2966 3190 
Q 3341 2797 3341 1997 
z
" transform="scale(0.015625)"/>
       <path id="DejaVuSans-49" d="M 628 4666 
L 1259 4666 
L 1259 0 
L 628 0 
L 628 4666 
z
" transform="scale(0.015625)"/>
       <path id="DejaVuSans-70" d="M 1159 525 
L 1159 -1331 
L 581 -1331 
L 581 3500 
L 1159 3500 
L 1159 2969 
Q 1341 3281 1617 3432 
Q 1894 3584 2278 3584 
Q 2916 3584 3314 3078 
Q 3713 2572 3713 1747 
Q 3713 922 3314 415 
Q 2916 -91 2278 -91 
Q 1894 -91 1617 61 
Q 1341 213 1159 525 
z
M 3116 1747 
Q 3116 2381 2855 2742 
Q 2594 3103 2138 3103 
Q 1681 3103 1420 2742 
Q 1159 2381 1159 1747 
Q 1159 1113 1420 752 
Q 1681 391 2138 391 
Q 2594 391 2855 752 
Q 3116 1113 3116 1747 
z
" transform="scale(0.015625)"/>
      </defs>
      <use xlink:href="#DejaVuSans-43"/>
      <use xlink:href="#DejaVuSans-6f" x="69.824219"/>
      <use xlink:href="#DejaVuSans-6c" x="131.005859"/>
      <use xlink:href="#DejaVuSans-6f" x="158.789062"/>
      <use xlink:href="#DejaVuSans-72" x="219.970703"/>
      <use xlink:href="#DejaVuSans-73" x="261.083984"/>
      <use xlink:href="#DejaVuSans-20" x="313.183594"/>
      <use xlink:href="#DejaVuSans-43" x="344.970703"/>
      <use xlink:href="#DejaVuSans-6f" x="414.794922"/>
      <use xlink:href="#DejaVuSans-6e" x="475.976562"/>
      <use xlink:href="#DejaVuSans-74" x="539.355469"/>
      <use xlink:href="#DejaVuSans-72" x="578.564453"/>
      <use xlink:href="#DejaVuSans-61" x="619.677734"/>
      <use xlink:href="#DejaVuSans-20" x="680.957031"/>
      <use xlink:href="#DejaVuSans-2212" x="712.744141"/>
      <use xlink:href="#DejaVuSans-20" x="796.533203"/>
      <use xlink:href="#DejaVuSans-43" x="828.320312"/>
      <use xlink:href="#DejaVuSans-6f" x="898.144531"/>
      <use xlink:href="#DejaVuSans-6c" x="959.326172"/>
      <use xlink:href="#DejaVuSans-6f" x="987.109375"/>
      <use xlink:href="#DejaVuSans-72" x="1048.291016"/>
      <use xlink:href="#DejaVuSans-73" x="1089.404297"/>
      <use xlink:href="#DejaVuSans-20" x="1141.503906"/>
      <use xlink:href="#DejaVuSans-49" x="1173.291016"/>
      <use xlink:href="#DejaVuSans-70" x="1202.783203"/>
      <use xlink:href="#DejaVuSans-73" x="1266.259766"/>
      <use xlink:href="#DejaVuSans-69" x="1318.359375"/>
     </g>
    </g>
    <g id="line2d_17">
     <path d="M 346.785937 79.616562 
L 356.785937 79.616562 
L 366.785937 79.616562 
" style="fill: none; stroke: #2ca02c; stroke-width: 1.5; stroke-linecap: square"/>
    </g>
    <g id="text_19">
     <!-- Forms Contra − Forms Ipsi -->
     <g transform="translate(374.785937 83.116562) scale(0.1 -0.1)">
      <defs>
       <path id="DejaVuSans-46" d="M 628 4666 
L 3309 4666 
L 3309 4134 
L 1259 4134 
L 1259 2759 
L 3109 2759 
L 3109 2228 
L 1259 2228 
L 1259 0 
L 628 0 
L 628 4666 
z
" transform="scale(0.015625)"/>
      </defs>
      <use xlink:href="#DejaVuSans-46"/>
      <use xlink:href="#DejaVuSans-6f" x="53.894531"/>
      <use xlink:href="#DejaVuSans-72" x="115.076172"/>
      <use xlink:href="#DejaVuSans-6d" x="154.439453"/>
      <use xlink:href="#DejaVuSans-73" x="251.851562"/>
      <use xlink:href="#DejaVuSans-20" x="303.951172"/>
      <use xlink:href="#DejaVuSans-43" x="335.738281"/>
      <use xlink:href="#DejaVuSans-6f" x="405.5625"/>
      <use xlink:href="#DejaVuSans-6e" x="466.744141"/>
      <use xlink:href="#DejaVuSans-74" x="530.123047"/>
      <use xlink:href="#DejaVuSans-72" x="569.332031"/>
      <use xlink:href="#DejaVuSans-61" x="610.445312"/>
      <use xlink:href="#DejaVuSans-20" x="671.724609"/>
      <use xlink:href="#DejaVuSans-2212" x="703.511719"/>
      <use xlink:href="#DejaVuSans-20" x="787.300781"/>
      <use xlink:href="#DejaVuSans-46" x="819.087891"/>
      <use xlink:href="#DejaVuSans-6f" x="872.982422"/>
      <use xlink:href="#DejaVuSans-72" x="934.164062"/>
      <use xlink:href="#DejaVuSans-6d" x="973.527344"/>
      <use xlink:href="#DejaVuSans-73" x="1070.939453"/>
      <use xlink:href="#DejaVuSans-20" x="1123.039062"/>
      <use xlink:href="#DejaVuSans-49" x="1154.826172"/>
      <use xlink:href="#DejaVuSans-70" x="1184.318359"/>
      <use xlink:href="#DejaVuSans-73" x="1247.794922"/>
      <use xlink:href="#DejaVuSans-69" x="1299.894531"/>
     </g>
    </g>
   </g>
   <g id="line2d_18">
    <path d="M 72 213.890059 
L 74.550857 214.879865 
L 75.826286 215.180001 
L 77.101714 215.282832 
L 78.377143 215.176778 
L 79.652571 214.884779 
L 82.203429 213.979265 
L 84.116571 213.334468 
L 85.392 213.064114 
L 86.667429 212.978341 
L 87.942857 213.089721 
L 89.856 213.565581 
L 93.682286 214.736739 
L 94.957714 214.863324 
L 96.233143 214.73887 
L 97.508571 214.333934 
L 98.784 213.659315 
L 100.697143 212.26731 
L 103.885714 209.772538 
L 105.161143 209.053772 
L 106.436571 208.650797 
L 107.712 208.630437 
L 108.987429 209.019398 
L 110.262857 209.803939 
L 111.538286 210.932297 
L 113.451429 213.082608 
L 117.277714 217.706448 
L 118.553143 218.974174 
L 119.828571 219.985169 
L 121.104 220.705442 
L 122.379429 221.127146 
L 123.654857 221.264504 
L 124.930286 221.148166 
L 126.205714 220.820269 
L 128.118857 220.034309 
L 130.669714 218.664961 
L 137.046857 215.069291 
L 140.235429 213.579744 
L 142.786286 212.620344 
L 145.337143 211.899809 
L 147.250286 211.542125 
L 149.163429 211.374753 
L 151.076571 211.442221 
L 152.989714 211.80116 
L 154.265143 212.231946 
L 155.540571 212.833307 
L 156.816 213.613616 
L 158.729143 215.114761 
L 160.642286 216.959728 
L 167.019429 223.59304 
L 168.294857 224.535018 
L 169.570286 225.209724 
L 170.845714 225.580795 
L 172.121143 225.630419 
L 173.396571 225.360674 
L 174.672 224.792984 
L 175.947429 223.965776 
L 177.860571 222.354164 
L 181.049143 219.193348 
L 183.6 216.756561 
L 185.513143 215.198572 
L 187.426286 213.942247 
L 189.339429 212.992334 
L 191.252571 212.317221 
L 193.165714 211.874478 
L 195.078857 211.636517 
L 196.992 211.611041 
L 198.905143 211.850458 
L 200.180571 212.201884 
L 201.456 212.745707 
L 202.731429 213.516176 
L 204.006857 214.542812 
L 205.282286 215.844621 
L 206.557714 217.424002 
L 208.470857 220.262602 
L 211.659429 225.705551 
L 213.572571 228.794681 
L 214.848 230.479469 
L 216.123429 231.681426 
L 216.761143 232.054722 
L 217.398857 232.253972 
L 218.036571 232.264927 
L 218.674286 232.075849 
L 219.312 231.67792 
L 219.949714 231.06555 
L 220.587429 230.236695 
L 221.862857 227.940824 
L 223.138286 224.853752 
L 224.413714 221.104167 
L 226.326857 214.66525 
L 228.877714 205.898407 
L 230.153143 202.067673 
L 231.428571 198.958515 
L 232.066286 197.743288 
L 232.704 196.783275 
L 233.341714 196.094461 
L 233.979429 195.687737 
L 234.617143 195.568618 
L 235.254857 195.737081 
L 235.892571 196.187543 
L 236.530286 196.908968 
L 237.168 197.885104 
L 238.443429 200.512731 
L 239.718857 203.852882 
L 242.269714 211.581741 
L 244.182857 217.167811 
L 245.458286 220.315536 
L 246.733714 222.79068 
L 247.371429 223.741686 
L 248.009143 224.493038 
L 248.646857 225.044339 
L 249.284571 225.399831 
L 249.922286 225.568077 
L 250.56 225.561533 
L 251.197714 225.396005 
L 252.473143 224.664264 
L 253.748571 223.542096 
L 258.212571 219.011814 
L 259.488 218.079806 
L 260.763429 217.422864 
L 262.038857 217.03257 
L 263.314286 216.868239 
L 265.227429 216.913993 
L 269.053714 217.391853 
L 271.604571 217.825716 
L 273.517714 218.392063 
L 274.793143 218.990641 
L 276.068571 219.824876 
L 277.344 220.924836 
L 278.619429 222.294775 
L 280.532571 224.796435 
L 283.083429 228.656926 
L 286.272 233.481832 
L 288.185143 236.01055 
L 290.098286 238.166983 
L 292.011429 239.994332 
L 294.562286 242.084707 
L 297.113143 243.917642 
L 299.026286 245.079911 
L 300.301714 245.686302 
L 301.577143 246.103223 
L 302.852571 246.289003 
L 304.128 246.218054 
L 305.403429 245.889071 
L 306.678857 245.32929 
L 308.592 244.183058 
L 311.780571 242.132559 
L 313.693714 241.232195 
L 314.969143 240.843641 
L 316.882286 240.506136 
L 318.795429 240.208875 
L 320.070857 239.83343 
L 321.346286 239.164862 
L 322.621714 238.091546 
L 323.897143 236.538789 
L 325.172571 234.483739 
L 326.448 231.963453 
L 328.361143 227.536013 
L 331.549714 219.813196 
L 332.825143 217.145991 
L 334.100571 214.954428 
L 335.376 213.327625 
L 336.651429 212.289151 
L 337.289143 211.979322 
L 338.564571 211.721842 
L 339.84 211.835204 
L 344.304 212.773216 
L 345.579429 212.597077 
L 346.854857 212.077915 
L 348.130286 211.225384 
L 349.405714 210.10035 
L 354.507429 205.028041 
L 355.782857 204.12464 
L 357.058286 203.468995 
L 358.333714 203.040209 
L 360.246857 202.690991 
L 363.435429 202.202948 
L 365.348571 201.59365 
L 367.261714 200.681554 
L 370.450286 198.995081 
L 371.725714 198.530281 
L 373.001143 198.327669 
L 374.276571 198.455751 
L 375.552 198.946817 
L 376.827429 199.7955 
L 378.102857 200.959438 
L 380.016 203.126842 
L 383.842286 207.747079 
L 385.755429 209.628792 
L 387.030857 210.619015 
L 388.306286 211.396613 
L 390.219429 212.225267 
L 392.132571 212.77095 
L 395.958857 213.533732 
L 400.422857 214.471537 
L 402.973714 215.229747 
L 404.886857 216.081569 
L 406.162286 216.869046 
L 407.437714 217.881958 
L 408.713143 219.148788 
L 409.988571 220.675472 
L 411.901714 223.388657 
L 417.003429 231.100704 
L 418.278857 232.51582 
L 419.554286 233.521993 
L 420.829714 234.072929 
L 422.105143 234.171123 
L 423.380571 233.870794 
L 424.656 233.271721 
L 428.482286 231.104616 
L 429.757714 230.749504 
L 431.033143 230.766405 
L 432.308571 231.202372 
L 433.584 232.049701 
L 434.859429 233.248123 
L 436.772571 235.468633 
L 439.323429 238.500934 
L 440.598857 239.751071 
L 441.874286 240.69572 
L 443.149714 241.290519 
L 444.425143 241.537197 
L 445.700571 241.479205 
L 446.976 241.191032 
L 449.526857 240.284873 
L 452.077714 239.436346 
L 457.817143 237.85864 
L 459.092571 237.154107 
L 460.368 236.178077 
L 461.643429 234.913459 
L 463.556571 232.545947 
L 468.020571 226.548441 
L 469.296 225.285946 
L 470.571429 224.414823 
L 471.846857 223.971018 
L 473.122286 223.931681 
L 474.397714 224.215134 
L 478.224 225.539837 
L 479.499429 225.578765 
L 480.137143 225.441326 
L 480.774857 225.18467 
L 482.050286 224.295259 
L 483.325714 222.92052 
L 484.601143 221.146064 
L 488.427429 215.20495 
L 489.702857 213.772054 
L 490.340571 213.28232 
L 490.978286 212.972437 
L 491.616 212.858739 
L 492.253714 212.952717 
L 492.891429 213.260617 
L 493.529143 213.783205 
L 494.166857 214.515705 
L 495.442286 216.564457 
L 496.717714 219.266116 
L 498.630857 224.080149 
L 501.181714 230.59229 
L 502.457143 233.340564 
L 503.732571 235.499881 
L 504.370286 236.322128 
L 505.008 236.962387 
L 505.645714 237.418622 
L 506.283429 237.693136 
L 506.921143 237.792213 
L 507.558857 237.72571 
L 508.196571 237.506532 
L 509.472 236.673019 
L 510.747429 235.429718 
L 512.660571 233.104094 
L 518.4 225.632921 
L 518.4 225.632921 
" style="fill: none; stroke: #ff7f0e; stroke-width: 1.5; stroke-linecap: square"/>
   </g>
   <g id="line2d_19">
    <path d="M 72 212.425273 
L 75.188571 213.347734 
L 77.101714 213.642831 
L 79.014857 213.64367 
L 80.928 213.343443 
L 82.841143 212.800032 
L 89.218286 210.668807 
L 91.131429 210.329142 
L 93.044571 210.207398 
L 94.957714 210.280044 
L 97.508571 210.600101 
L 101.334857 211.343211 
L 105.161143 212.270935 
L 107.712 213.057108 
L 110.262857 214.064911 
L 112.813714 215.328163 
L 116.002286 217.200243 
L 121.104 220.249647 
L 123.017143 221.13673 
L 124.930286 221.742802 
L 126.205714 221.953198 
L 127.481143 221.990086 
L 128.756571 221.846207 
L 130.032 221.524446 
L 131.945143 220.742697 
L 133.858286 219.68413 
L 138.96 216.604792 
L 140.873143 215.784548 
L 142.786286 215.295574 
L 144.699429 215.124158 
L 147.250286 215.221631 
L 149.801143 215.341629 
L 151.714286 215.210769 
L 153.627429 214.773907 
L 155.540571 214.023471 
L 158.091429 212.702694 
L 160.642286 211.394459 
L 162.555429 210.69019 
L 163.830857 210.429956 
L 165.106286 210.357653 
L 166.381714 210.468278 
L 168.294857 210.921292 
L 170.845714 211.835888 
L 174.034286 212.955358 
L 175.947429 213.429313 
L 178.498286 213.811597 
L 189.977143 214.918766 
L 191.890286 214.798374 
L 193.803429 214.467615 
L 200.818286 212.898343 
L 202.731429 212.809741 
L 208.470857 212.837656 
L 210.384 212.528875 
L 216.123429 211.253209 
L 217.398857 211.366483 
L 218.674286 211.780397 
L 219.949714 212.515442 
L 221.225143 213.54277 
L 223.138286 215.438558 
L 225.051429 217.325402 
L 226.326857 218.282063 
L 226.964571 218.602851 
L 227.602286 218.792446 
L 228.24 218.834863 
L 228.877714 218.717932 
L 229.515429 218.433948 
L 230.153143 217.980188 
L 230.790857 217.35929 
L 232.066286 215.654451 
L 233.341714 213.450848 
L 237.168 206.227225 
L 238.443429 204.58445 
L 239.081143 204.063315 
L 239.718857 203.777946 
L 240.356571 203.748192 
L 240.994286 203.987543 
L 241.632 204.502599 
L 242.269714 205.292747 
L 242.907429 206.350061 
L 244.182857 209.198837 
L 245.458286 212.848861 
L 248.009143 221.347482 
L 249.922286 227.390931 
L 251.197714 230.646921 
L 252.473143 233.004382 
L 253.110857 233.801762 
L 253.748571 234.335257 
L 254.386286 234.606637 
L 255.024 234.624687 
L 255.661714 234.404797 
L 256.299429 233.968365 
L 256.937143 233.34203 
L 258.212571 231.646841 
L 262.676571 224.855301 
L 263.314286 224.221224 
L 263.952 223.745209 
L 264.589714 223.440157 
L 265.227429 223.313613 
L 265.865143 223.367821 
L 266.502857 223.599941 
L 267.140571 224.002424 
L 268.416 225.267731 
L 269.691429 227.02976 
L 271.604571 230.22973 
L 274.155429 234.622117 
L 276.068571 237.41764 
L 277.344 238.910376 
L 278.619429 240.10007 
L 279.894857 241.028507 
L 281.808 242.096335 
L 284.358857 243.414602 
L 285.634286 244.244863 
L 286.909714 245.299783 
L 288.185143 246.643544 
L 289.460571 248.324412 
L 290.736 250.376166 
L 292.011429 252.820492 
L 293.286857 255.669583 
L 294.562286 258.928325 
L 296.475429 264.581159 
L 298.388571 271.128617 
L 300.301714 278.523075 
L 302.214857 286.694017 
L 304.765714 298.634362 
L 307.954286 314.830895 
L 314.331429 347.924217 
L 316.244571 356.57307 
L 317.52 361.565826 
L 318.795429 365.751159 
L 320.070857 368.976511 
L 320.708571 370.187237 
L 321.346286 371.111512 
L 321.984 371.738562 
L 322.621714 372.060464 
L 323.259429 372.07241 
L 323.897143 371.772888 
L 324.534857 371.163785 
L 325.172571 370.250401 
L 325.810286 369.041384 
L 327.085714 365.786675 
L 328.361143 361.527356 
L 329.636571 356.425772 
L 331.549714 347.592932 
L 334.100571 334.54145 
L 342.390857 291.32664 
L 346.217143 272.521391 
L 348.768 261.18665 
L 350.681143 253.803496 
L 352.594286 247.584604 
L 354.507429 242.465682 
L 356.420571 238.087038 
L 358.971429 232.320037 
L 360.246857 228.984041 
L 361.522286 225.0966 
L 362.797714 220.544073 
L 364.073143 215.301805 
L 365.986286 206.346467 
L 369.812571 187.598931 
L 371.088 182.402534 
L 372.363429 178.354553 
L 373.001143 176.858432 
L 373.638857 175.754779 
L 374.276571 175.065061 
L 374.914286 174.802434 
L 375.552 174.972388 
L 376.189714 175.572124 
L 376.827429 176.59045 
L 377.465143 178.008347 
L 378.102857 179.799053 
L 379.378286 184.358598 
L 380.653714 189.942611 
L 383.204571 202.641589 
L 385.755429 214.95131 
L 387.030857 220.301293 
L 388.306286 224.964106 
L 389.581714 228.966977 
L 391.494857 234.025113 
L 395.321143 243.359645 
L 397.234286 248.960329 
L 399.147429 255.551762 
L 404.886857 276.636257 
L 406.162286 280.025023 
L 406.8 281.363152 
L 407.437714 282.437608 
L 408.075429 283.23526 
L 408.713143 283.748607 
L 409.350857 283.975892 
L 409.988571 283.921073 
L 410.626286 283.593639 
L 411.264 283.008263 
L 411.901714 282.184369 
L 413.177143 279.919789 
L 414.452571 277.025187 
L 417.003429 270.352011 
L 418.916571 265.500401 
L 420.192 262.675525 
L 421.467429 260.295731 
L 422.742857 258.392822 
L 424.018286 256.943854 
L 425.293714 255.882432 
L 426.569143 255.116264 
L 428.482286 254.306498 
L 437.410286 251.283292 
L 439.323429 250.991296 
L 441.236571 251.01338 
L 443.149714 251.312251 
L 449.526857 252.69834 
L 452.077714 252.848281 
L 455.266286 252.730173 
L 457.817143 252.460535 
L 459.730286 252.028848 
L 461.005714 251.514561 
L 462.281143 250.718816 
L 463.556571 249.550289 
L 464.832 247.926819 
L 466.107429 245.789938 
L 467.382857 243.118848 
L 468.658286 239.940033 
L 470.571429 234.405792 
L 475.035429 220.781167 
L 476.310857 217.623511 
L 477.586286 215.142385 
L 478.224 214.197397 
L 478.861714 213.4642 
L 479.499429 212.948457 
L 480.137143 212.651268 
L 480.774857 212.569113 
L 481.412571 212.693928 
L 482.050286 213.013286 
L 482.688 213.510686 
L 483.963429 214.955683 
L 485.238857 216.832567 
L 488.427429 221.910488 
L 489.702857 223.51842 
L 490.978286 224.624546 
L 491.616 224.956335 
L 492.253714 225.131101 
L 492.891429 225.146971 
L 493.529143 225.006205 
L 494.166857 224.715005 
L 495.442286 223.723942 
L 496.717714 222.288767 
L 498.630857 219.638322 
L 501.181714 216.048463 
L 502.457143 214.560723 
L 503.732571 213.414585 
L 505.008 212.658929 
L 506.283429 212.29841 
L 507.558857 212.298745 
L 508.834286 212.596306 
L 510.109714 213.110482 
L 512.660571 214.460286 
L 515.849143 216.143227 
L 518.4 217.310022 
L 518.4 217.310022 
" style="fill: none; stroke: #2ca02c; stroke-width: 1.5; stroke-linecap: square"/>
   </g>
  </g>
 </g>
 <defs>
  <clipPath id="p9804c18d2a">
   <rect x="72" y="51.84" width="446.4" height="326.16"/>
  </clipPath>
 </defs>
</svg>
